<!DOCTYPE svg PUBLIC "-//W3C//DTD SVG 20010904//EN" "http://www.w3.org/TR/2001/REC-SVG-20010904/DTD/svg10.dtd">
<svg version="1.0" xmlns="http://www.w3.org/2000/svg" width="186px" height="186px" viewBox="0 0 1860 1860" preserveAspectRatio="xMidYMid meet">
<g id="layer101" fill="#230f08" stroke="none">
 <path d="M700 1850 c0 -5 -18 -10 -40 -10 -22 0 -40 -4 -40 -10 0 -5 -13 -10 -30 -10 -16 0 -30 -4 -30 -10 0 -5 -9 -10 -20 -10 -11 0 -20 -4 -20 -10 0 -5 -9 -10 -20 -10 -11 0 -20 -4 -20 -10 0 -5 -9 -10 -20 -10 -11 0 -20 -4 -20 -10 0 -5 -9 -10 -20 -10 -11 0 -20 -4 -20 -10 0 -5 -7 -10 -15 -10 -20 0 -245 -225 -245 -245 0 -8 -4 -15 -10 -15 -5 0 -10 -9 -10 -20 0 -11 -4 -20 -10 -20 -5 0 -10 -9 -10 -20 0 -11 -4 -20 -10 -20 -5 0 -10 -9 -10 -20 0 -11 -4 -20 -10 -20 -5 0 -10 -9 -10 -20 0 -11 -4 -20 -10 -20 -5 0 -10 -13 -10 -30 0 -16 -4 -30 -10 -30 -5 0 -10 -13 -10 -30 0 -16 -4 -30 -10 -30 -6 0 -10 -83 -10 -230 0 -147 4 -230 10 -230 6 0 10 -18 10 -40 0 -22 5 -40 10 -40 6 0 10 -13 10 -30 0 -16 5 -30 10 -30 6 0 10 -13 10 -30 0 -16 5 -30 10 -30 6 0 10 -8 10 -18 0 -10 9 -24 20 -32 11 -8 20 -22 20 -32 0 -10 5 -18 10 -18 6 0 10 -7 10 -15 0 -20 225 -245 245 -245 8 0 15 -4 15 -10 0 -5 9 -10 20 -10 11 0 20 -4 20 -10 0 -5 8 -10 18 -10 10 0 24 -9 32 -20 8 -12 26 -20 42 -20 15 0 28 -4 28 -10 0 -5 9 -10 20 -10 11 0 20 -4 20 -10 0 -5 14 -10 30 -10 17 0 30 -4 30 -10 0 -5 11 -10 24 -10 14 0 28 -5 31 -10 4 -6 73 -10 176 -10 106 0 169 4 169 10 0 6 23 10 50 10 28 0 50 5 50 10 0 6 18 10 40 10 22 0 40 5 40 10 0 6 9 10 20 10 11 0 20 5 20 10 0 6 14 10 30 10 17 0 30 5 30 10 0 6 9 10 20 10 11 0 20 5 20 10 0 6 8 10 18 10 10 0 24 9 32 20 8 11 21 20 30 20 9 0 22 9 30 20 8 11 20 20 27 20 17 0 143 126 143 143 0 7 9 19 20 27 11 8 20 21 20 30 0 9 9 22 20 30 11 8 20 22 20 32 0 10 5 18 10 18 6 0 10 9 10 20 0 11 5 20 10 20 6 0 10 9 10 20 0 11 5 20 10 20 6 0 10 14 10 30 0 17 5 30 10 30 6 0 10 18 10 40 0 22 5 40 10 40 6 0 10 23 10 50 0 28 5 50 10 50 6 0 10 50 10 130 0 80 -4 130 -10 130 -6 0 -10 27 -10 60 0 33 -4 60 -10 60 -5 0 -10 18 -10 40 0 22 -4 40 -10 40 -5 0 -10 9 -10 20 0 11 -4 20 -10 20 -5 0 -10 14 -10 30 0 17 -4 30 -10 30 -5 0 -10 8 -10 18 0 10 -9 24 -20 32 -11 8 -20 22 -20 32 0 10 -4 18 -10 18 -5 0 -10 7 -10 15 0 20 -225 245 -245 245 -8 0 -15 5 -15 10 0 6 -8 10 -18 10 -10 0 -24 9 -32 20 -8 12 -26 20 -42 20 -15 0 -28 5 -28 10 0 6 -9 10 -20 10 -11 0 -20 5 -20 10 0 6 -13 10 -30 10 -16 0 -30 5 -30 10 0 6 -18 10 -40 10 -22 0 -40 5 -40 10 0 6 -80 10 -220 10 -140 0 -220 -4 -220 -10z"/>
 </g>
<g id="layer102" fill="#2e0a04" stroke="none">
 <path d="M730 1844 c-193 -41 -378 -153 -512 -309 -75 -87 -164 -253 -193 -360 -22 -80 -31 -316 -16 -398 51 -269 211 -500 436 -632 36 -21 65 -44 65 -52 0 -10 7 -14 20 -10 11 3 23 1 26 -4 3 -5 9 -7 13 -5 4 3 14 -4 21 -15 8 -11 26 -19 42 -19 15 0 28 -4 28 -8 0 -4 29 -8 65 -8 36 1 69 -4 73 -9 9 -14 262 -18 262 -5 0 6 23 10 50 10 28 0 50 5 50 10 0 6 16 10 35 10 22 0 38 6 41 14 3 8 12 12 21 9 8 -3 18 0 23 6 6 11 24 17 53 20 5 1 6 5 3 10 -3 5 1 12 10 15 8 3 12 2 9 -4 -3 -6 1 -10 9 -10 9 0 16 5 16 10 0 6 7 10 16 10 9 0 24 8 33 18 9 9 28 23 44 31 15 8 27 18 27 23 0 4 7 8 15 8 9 0 27 11 40 25 27 26 33 41 13 29 -7 -4 -6 1 3 12 59 73 85 99 98 96 11 -2 12 0 4 5 -8 6 0 27 30 73 59 93 104 206 127 320 58 286 -26 583 -224 797 -146 157 -312 252 -504 289 -92 18 -286 17 -372 -2z m330 -104 c0 -5 -7 -10 -15 -10 -8 0 -15 5 -15 10 0 6 7 10 15 10 8 0 15 -4 15 -10z m-270 -60 c0 -5 -9 -10 -20 -10 -11 0 -20 5 -20 10 0 6 9 10 20 10 11 0 20 -4 20 -10z m666 -113 c3 -23 -23 -21 -29 2 -3 13 0 18 11 17 8 -2 16 -10 18 -19z m118 -118 c-9 -15 -20 -10 -20 10 0 15 3 17 13 9 7 -6 10 -14 7 -19z m-1019 -82 c22 -2 -21 -4 -95 -5 -74 -1 -130 2 -124 6 11 6 123 6 219 -1z m595 -1 c0 -2 -11 -6 -25 -8 -14 -3 -25 -1 -25 3 0 5 11 9 25 9 14 0 25 -2 25 -4z m270 -6 c0 -6 -11 -8 -27 -4 -40 10 -41 14 -5 14 18 0 32 -5 32 -10z m-1093 -272 c-1 -51 -3 -12 -3 87 0 99 2 141 3 93 2 -48 2 -129 0 -180z m1150 250 c15 -7 35 -21 44 -30 9 -10 20 -18 24 -18 10 0 45 -40 45 -52 0 -4 7 -8 15 -8 8 0 15 -5 15 -11 0 -5 4 -8 9 -5 4 3 6 -6 3 -19 -3 -18 0 -25 12 -25 9 0 16 -8 16 -20 0 -11 7 -20 15 -20 18 0 20 31 3 48 -9 9 -9 12 -1 12 7 0 15 10 19 22 6 19 7 20 16 4 5 -10 7 -28 4 -41 -4 -16 -1 -25 10 -29 12 -5 14 -14 9 -38 -9 -44 -25 -60 -25 -25 0 15 -4 27 -10 27 -13 0 -13 -16 3 -58 9 -28 9 -36 0 -39 -7 -3 -18 -23 -25 -46 l-13 -42 -2 45 c-5 79 -24 163 -48 211 -26 50 -104 126 -157 152 -38 19 -23 23 19 5z m-1332 -166 c-8 -9 -25 20 -18 31 3 5 10 2 15 -7 6 -10 7 -20 3 -24z m495 -42 c6 0 10 -4 10 -10 0 -5 -9 -10 -20 -10 -17 0 -20 6 -19 43 l1 42 9 -32 c5 -18 14 -33 19 -33z m628 23 c-10 -2 -28 -2 -40 0 -13 2 -5 4 17 4 22 1 32 -1 23 -4z m-88 -33 c-13 -11 -20 -20 -16 -20 4 0 0 -7 -8 -16 -9 -8 -16 -25 -16 -36 0 -12 -3 -19 -6 -15 -11 11 5 55 32 87 15 17 29 28 32 25 3 -2 -5 -14 -18 -25z m170 -1 c0 -5 -9 -9 -20 -9 -22 0 -23 1 -14 24 5 13 9 14 20 5 8 -6 14 -15 14 -20z m-113 -56 c-3 -10 -5 -2 -5 17 0 19 2 27 5 18 2 -10 2 -26 0 -35z m-414 -18 c8 -52 -2 -135 -14 -135 -5 0 -9 41 -9 90 0 95 13 120 23 45z m936 -103 c-1 -87 -6 -79 -11 20 -2 37 0 64 4 62 4 -3 7 -40 7 -82z m-1660 -14 c-1 -78 -2 -80 -10 -38 -8 40 -4 120 7 120 2 0 4 -37 3 -82z m1087 -55 c13 -12 30 -23 39 -23 8 0 15 -4 15 -10 0 -13 -6 -13 -39 4 -31 16 -54 48 -65 86 -6 23 -5 22 10 -4 9 -16 27 -40 40 -53z m404 40 c-35 -2 -70 -9 -78 -15 -10 -9 -15 -9 -21 0 -4 7 -49 12 -121 15 -63 1 -25 3 85 3 110 0 171 -1 135 -3z m-865 -20 c-57 -3 -82 -8 -88 -18 -12 -21 -27 -18 -27 5 0 19 6 20 98 18 l97 -2 -80 -3z m715 -13 c11 -5 29 -14 40 -20 11 -5 28 -10 37 -10 19 -1 53 -22 53 -34 0 -6 -81 24 -90 33 -3 3 -9 6 -15 6 -5 1 -30 7 -54 15 -38 12 -45 12 -55 -1 -22 -31 -86 -52 -86 -29 0 6 9 10 20 10 11 0 20 3 20 8 0 24 94 40 130 22z m-643 -44 c3 -3 -16 -3 -43 0 -27 3 -51 8 -54 11 -7 8 89 -3 97 -11z m76 -9 c3 -8 -4 -14 -19 -15 -13 -1 -24 3 -24 9 0 6 7 9 15 5 8 -3 15 -1 15 4 0 14 7 12 13 -3z m747 -82 c0 -8 -7 -15 -16 -15 -14 0 -14 3 -4 15 7 8 14 15 16 15 2 0 4 -7 4 -15z m-1287 -186 c26 -30 17 -31 -18 -3 -19 15 -24 24 -15 24 9 0 24 -9 33 -21z m1171 -155 c4 -10 1 -14 -6 -12 -15 5 -23 28 -10 28 5 0 13 -7 16 -16z m-1134 -88 c0 -5 -13 3 -30 19 -16 16 -30 33 -30 39 0 5 14 -3 30 -19 17 -16 30 -33 30 -39z m1145 34 c-10 -11 -22 -20 -28 -20 -5 0 1 11 14 24 28 29 40 25 14 -4z m-1025 -118 c-7 -3 -19 3 -28 13 -16 15 -15 16 12 4 15 -7 23 -15 16 -17z m630 -102 c0 -5 -10 -10 -22 -10 -19 0 -20 2 -8 10 19 13 30 13 30 0z m-125 -20 c-24 -10 -129 -10 -170 0 -19 5 9 8 80 8 70 0 103 -3 90 -8z"/>
 <path d="M725 10 c-3 -5 3 -10 15 -10 12 0 18 5 15 10 -3 6 -10 10 -15 10 -5 0 -12 -4 -15 -10z"/>
 </g>
<g id="layer103" fill="#4f0d02" stroke="none">
 <path d="M730 1844 c-193 -41 -378 -153 -512 -309 -75 -87 -164 -253 -193 -360 -22 -80 -31 -316 -16 -398 51 -269 211 -500 436 -632 36 -21 65 -44 65 -52 0 -10 7 -14 20 -10 11 3 23 1 26 -4 3 -5 9 -7 13 -5 4 3 14 -4 21 -15 8 -11 26 -19 42 -19 15 0 28 -4 28 -8 0 -4 29 -8 65 -8 36 1 69 -4 73 -9 9 -14 262 -18 262 -5 0 6 23 10 50 10 28 0 50 5 50 10 0 6 16 10 35 10 22 0 38 6 41 14 3 8 12 12 21 9 8 -3 18 0 23 6 6 11 24 17 53 20 5 1 6 5 3 10 -3 5 1 12 10 15 8 3 12 2 9 -4 -3 -6 1 -10 9 -10 9 0 16 5 16 10 0 6 7 10 16 10 9 0 24 8 33 18 9 9 28 23 44 31 15 8 27 18 27 23 0 4 7 8 15 8 9 0 27 11 40 25 27 26 33 41 13 29 -7 -4 -6 1 3 12 59 73 85 99 98 96 11 -2 12 0 4 5 -8 6 0 27 30 73 59 93 104 206 127 320 58 286 -26 583 -224 797 -146 157 -312 252 -504 289 -92 18 -286 17 -372 -2z m126 -174 c19 -16 44 -30 56 -30 12 0 19 -3 16 -6 -7 -7 -128 18 -128 26 0 10 -140 9 -146 -1 -3 -5 -17 -9 -31 -9 -13 0 -37 -8 -51 -18 -15 -10 -39 -24 -54 -32 -16 -7 -28 -17 -28 -22 0 -4 -7 -8 -15 -8 -8 0 -15 -4 -15 -10 0 -5 -5 -10 -10 -10 -6 0 -21 -10 -34 -22 -13 -13 -32 -31 -42 -40 -34 -30 -66 -78 -70 -105 -3 -16 23 -17 28 -2 5 16 165 12 220 -6 41 -12 37 -13 -89 -14 l-133 -1 0 -195 c0 -123 -4 -195 -10 -195 -6 0 -10 46 -11 118 0 64 -4 144 -8 177 -5 33 -4 68 1 77 7 14 5 16 -9 11 -26 -10 -51 -41 -76 -95 -12 -26 -26 -48 -30 -48 -5 0 -5 -5 -2 -10 4 -6 1 -17 -5 -25 -7 -9 -10 -26 -6 -42 4 -18 3 -23 -2 -15 -7 11 -10 10 -16 -3 -3 -9 -6 -26 -6 -37 0 -17 -2 -18 -15 -8 -9 7 -19 10 -23 6 -4 -4 -7 -67 -7 -139 0 -137 12 -206 55 -305 l20 -47 65 0 c57 0 68 -3 91 -27 38 -37 46 -117 15 -158 -11 -16 -21 -32 -21 -34 0 -16 163 -132 233 -166 120 -58 218 -80 358 -80 136 0 234 21 348 75 79 38 181 106 220 149 24 25 24 26 6 46 -10 11 -20 41 -23 70 -4 48 -3 52 37 91 41 41 42 42 97 36 l56 -6 19 44 c10 24 22 57 25 74 l7 31 -62 0 -62 0 23 31 c12 16 24 25 26 20 7 -20 27 -11 40 18 19 44 17 97 -5 105 -8 3 -11 1 -8 -4 4 -6 -15 -10 -49 -10 -30 0 -57 -4 -60 -9 -7 -11 27 -51 43 -51 7 0 9 -4 6 -10 -3 -5 -1 -10 4 -10 6 0 11 -4 11 -10 0 -5 -24 0 -52 11 -29 12 -86 33 -126 48 -66 23 -75 24 -85 10 -19 -25 -53 -39 -94 -39 -82 0 -136 68 -136 170 0 99 51 160 132 160 45 0 91 -21 91 -41 0 -5 -25 -9 -55 -9 l-55 0 -2 -77 -1 -78 -6 61 c-3 34 -13 69 -21 79 -8 11 -10 16 -4 12 6 -3 11 0 11 7 0 20 -18 10 -46 -25 -27 -34 -37 -119 -19 -154 23 -43 65 -74 94 -69 50 9 58 24 22 42 -17 8 28 11 185 11 l207 1 0 55 c0 170 -76 297 -218 363 -53 25 -67 27 -187 27 -122 0 -134 -2 -192 -29 -69 -32 -148 -107 -182 -173 -31 -62 -44 -163 -31 -246 6 -38 15 -78 21 -88 8 -16 6 -19 -16 -19 -14 0 -25 5 -25 10 0 6 4 10 9 10 6 0 9 9 8 20 -1 20 -12 17 -12 -3 0 -20 -55 -20 -142 -1 -66 15 -83 22 -83 36 0 16 11 18 95 18 l95 0 0 105 c0 58 3 104 8 104 25 -4 42 4 48 24 17 54 137 197 166 197 5 0 21 8 35 18 15 9 49 22 76 28 65 15 243 18 252 5 3 -6 18 -11 32 -11 28 0 123 -40 123 -52 0 -5 7 -8 15 -8 24 0 20 72 -5 90 -11 8 -20 22 -20 32 0 11 -7 18 -20 18 -13 0 -20 7 -20 20 0 11 -7 20 -15 20 -8 0 -20 9 -27 20 -7 11 -16 20 -20 20 -5 0 -22 14 -40 30 -17 17 -37 30 -44 30 -8 0 -14 4 -14 8 0 5 -16 14 -35 22 -19 8 -35 17 -35 22 0 4 -11 8 -25 8 -14 0 -25 5 -25 10 0 6 -34 10 -81 10 -44 0 -78 -4 -75 -9 3 -4 -14 -11 -37 -14 -24 -3 -52 -9 -62 -13 -11 -3 -6 3 11 14 42 27 64 60 64 94 0 32 -9 31 115 1 145 -35 319 -148 424 -275 62 -74 142 -235 167 -333 25 -97 25 -295 0 -388 -30 -114 -62 -183 -83 -179 -68 13 -83 12 -112 -2 -34 -18 -61 -62 -61 -99 0 -13 12 -42 26 -63 l27 -39 -56 -50 c-116 -106 -288 -184 -454 -206 -215 -28 -448 38 -627 181 -41 32 -77 64 -81 70 -3 6 5 24 19 41 72 85 -17 207 -121 170 -19 -7 -36 -11 -38 -9 -5 5 -46 109 -56 143 -5 17 -16 75 -25 130 -12 82 -13 115 -3 185 22 167 54 255 136 381 116 178 309 310 518 353 l60 13 8 -33 c5 -19 24 -47 43 -64z m-215 -525 c8 -8 35 -19 60 -24 44 -9 43 -9 -23 -10 l-68 -1 2 103 1 102 6 -77 c4 -50 11 -83 22 -93z"/>
 <path d="M725 10 c-3 -5 3 -10 15 -10 12 0 18 5 15 10 -3 6 -10 10 -15 10 -5 0 -12 -4 -15 -10z"/>
 </g>
<g id="layer104" fill="#6f1401" stroke="none">
 <path d="M730 1844 c-193 -41 -378 -153 -512 -309 -75 -87 -164 -253 -193 -360 -22 -80 -31 -316 -16 -398 51 -269 211 -500 436 -632 36 -21 65 -44 65 -52 0 -10 7 -14 20 -10 11 3 23 1 26 -4 3 -5 9 -7 13 -5 4 3 14 -4 21 -15 8 -11 26 -19 42 -19 15 0 28 -4 28 -8 0 -4 29 -8 65 -8 36 1 69 -4 73 -9 9 -14 262 -18 262 -5 0 6 23 10 50 10 28 0 50 5 50 10 0 6 16 10 35 10 22 0 38 6 41 14 3 8 12 12 21 9 8 -3 18 0 23 6 6 11 24 17 53 20 5 1 6 5 3 10 -3 5 1 12 10 15 8 3 12 2 9 -4 -3 -6 1 -10 9 -10 9 0 16 5 16 10 0 6 7 10 16 10 9 0 24 8 33 18 9 9 28 23 44 31 15 8 27 18 27 23 0 4 7 8 15 8 9 0 27 11 40 25 27 26 33 41 13 29 -7 -4 -6 1 3 12 59 73 85 99 98 96 11 -2 12 0 4 5 -8 6 0 27 30 73 59 93 104 206 127 320 58 286 -26 583 -224 797 -146 157 -312 252 -504 289 -92 18 -286 17 -372 -2z m121 -170 c24 -23 39 -29 75 -29 39 0 50 5 75 33 18 20 29 43 29 62 0 34 -9 34 115 3 145 -35 318 -147 422 -272 63 -77 143 -235 169 -336 25 -97 25 -295 0 -388 -22 -85 -61 -182 -73 -181 -4 0 -25 4 -46 8 -49 11 -93 -8 -118 -48 -26 -42 -24 -76 7 -122 l27 -39 -56 -50 c-116 -106 -288 -184 -454 -206 -215 -28 -448 38 -627 181 -41 32 -77 64 -81 70 -3 6 5 24 19 41 49 57 27 140 -44 169 -28 12 -46 11 -96 -5 -19 -6 -24 1 -46 57 -194 484 93 1028 597 1133 l60 12 8 -32 c5 -18 22 -46 38 -61z"/>
 <path d="M650 1621 c-8 -6 -25 -11 -37 -11 -13 0 -23 -4 -23 -10 0 -5 -8 -10 -17 -10 -10 0 -29 -9 -43 -20 -14 -11 -30 -20 -36 -20 -13 0 -67 -57 -84 -89 -6 -12 -9 -28 -7 -35 3 -7 41 -18 86 -25 44 -7 88 -19 98 -27 15 -11 -2 -13 -119 -14 l-138 0 0 -195 c0 -107 -3 -195 -7 -195 -20 1 -32 19 -31 45 0 17 -2 55 -5 85 -13 119 -37 147 -64 75 -8 -22 -21 -56 -28 -75 -9 -24 -10 -39 -3 -47 18 -22 -16 -15 -46 8 -15 12 -30 18 -34 14 -4 -4 -7 -66 -7 -138 1 -136 14 -209 56 -307 l19 -45 66 0 c62 0 67 -2 95 -33 37 -41 41 -114 9 -155 -11 -14 -20 -28 -20 -31 0 -16 162 -131 233 -166 120 -58 218 -80 358 -80 136 0 234 21 348 75 79 38 181 106 220 149 23 25 24 27 7 45 -10 11 -20 38 -23 62 -12 85 52 147 142 137 l47 -6 19 43 c11 24 22 57 25 74 l6 31 -61 0 -62 0 20 27 c12 14 20 27 18 29 -7 8 -239 94 -252 94 -8 0 -18 -6 -22 -14 -23 -38 -108 -48 -159 -17 -41 25 -67 83 -67 151 0 99 51 160 132 160 45 0 91 -21 91 -41 0 -5 -25 -9 -55 -9 l-55 0 0 -82 c0 -91 -12 -97 -20 -10 -4 49 -8 57 -25 57 -29 0 -55 -60 -44 -100 14 -48 29 -72 56 -84 38 -17 56 -14 50 9 -5 20 0 20 199 20 l204 0 0 55 c0 170 -76 297 -218 363 -53 25 -67 27 -187 27 -122 0 -134 -2 -192 -29 -69 -32 -148 -107 -182 -173 -31 -62 -44 -165 -31 -248 6 -37 15 -76 21 -86 8 -16 6 -19 -16 -19 -14 0 -25 5 -25 10 0 6 -15 10 -32 10 -18 0 -68 8 -110 17 -61 14 -78 22 -78 35 0 16 11 18 96 18 l95 0 -3 109 c-2 84 0 107 10 104 17 -7 39 13 58 53 9 19 20 34 25 34 5 0 9 5 9 11 0 20 62 90 103 116 82 52 164 75 267 75 52 0 123 -4 158 -7 l63 -7 -33 51 c-18 27 -38 50 -45 50 -6 1 -15 10 -18 21 -3 11 -13 20 -21 20 -8 0 -22 8 -32 18 -29 28 -96 59 -157 73 -45 10 -66 10 -104 0 -65 -16 -202 -22 -264 -10 -89 17 -151 20 -167 10z m-21 -382 c1 -79 20 -103 96 -117 50 -10 49 -10 -32 -11 l-83 -1 1 123 c1 126 16 132 18 6z"/>
 <path d="M725 10 c-3 -5 3 -10 15 -10 12 0 18 5 15 10 -3 6 -10 10 -15 10 -5 0 -12 -4 -15 -10z"/>
 </g>
<g id="layer105" fill="#5c2e12" stroke="none">
 <path d="M730 1844 c-193 -41 -378 -153 -512 -309 -75 -87 -164 -253 -193 -360 -22 -80 -31 -316 -16 -398 51 -269 211 -500 436 -632 36 -21 65 -44 65 -52 0 -10 7 -14 20 -10 11 3 23 1 26 -4 3 -5 9 -7 13 -5 4 3 14 -4 21 -15 8 -11 26 -19 42 -19 15 0 28 -4 28 -8 0 -4 29 -8 65 -8 36 1 69 -4 73 -9 9 -14 262 -18 262 -5 0 6 23 10 50 10 28 0 50 5 50 10 0 6 16 10 35 10 22 0 38 6 41 14 3 8 12 12 21 9 8 -3 18 0 23 6 6 11 24 17 53 20 5 1 6 5 3 10 -3 5 1 12 10 15 8 3 12 2 9 -4 -3 -6 1 -10 9 -10 9 0 16 5 16 10 0 6 7 10 16 10 9 0 24 8 33 18 9 9 28 23 44 31 15 8 27 18 27 23 0 4 7 8 15 8 9 0 27 11 40 25 27 26 33 41 13 29 -7 -4 -6 1 3 12 59 73 85 99 98 96 11 -2 12 0 4 5 -8 6 0 27 30 73 59 93 104 206 127 320 58 286 -26 583 -224 797 -146 157 -312 252 -504 289 -92 18 -286 17 -372 -2z m121 -170 c24 -23 39 -29 75 -29 39 0 50 5 75 33 18 20 29 43 29 62 0 34 -9 34 115 3 145 -35 318 -147 422 -272 63 -77 143 -235 169 -336 25 -97 25 -295 0 -388 -22 -85 -61 -182 -73 -181 -4 0 -25 4 -46 8 -49 11 -93 -8 -118 -48 -26 -42 -24 -76 7 -122 l27 -39 -56 -50 c-116 -106 -288 -184 -454 -206 -215 -28 -448 38 -627 181 -41 32 -77 64 -81 70 -3 6 5 24 19 41 49 57 27 140 -44 169 -28 12 -46 11 -96 -5 -19 -6 -24 1 -46 57 -194 484 93 1028 597 1133 l60 12 8 -32 c5 -18 22 -46 38 -61z"/>
 <path d="M590 1559 c-30 -17 -57 -33 -60 -37 -3 -4 -18 -15 -35 -24 -18 -10 -31 -26 -33 -40 -3 -24 -4 -24 112 -55 15 -4 16 -7 5 -15 -10 -7 -8 -8 9 -5 15 4 22 1 19 -6 -2 -8 -47 -13 -140 -15 l-137 -3 0 -194 c0 -107 -3 -195 -7 -195 -18 1 -68 36 -69 48 -1 6 -2 24 -3 38 0 14 -5 23 -10 20 -5 -4 -8 -17 -6 -31 1 -14 -2 -25 -7 -25 -13 0 -70 30 -91 48 -9 8 -20 12 -25 8 -4 -4 -7 -67 -7 -139 1 -136 14 -209 56 -307 l19 -45 66 0 c62 0 67 -2 95 -33 37 -41 41 -114 9 -155 -11 -14 -20 -28 -20 -31 0 -16 162 -131 233 -166 120 -58 218 -80 358 -80 136 0 234 21 348 75 79 38 181 106 220 149 23 25 24 27 7 45 -10 11 -20 38 -23 62 -12 85 52 147 142 137 l47 -6 19 43 c11 24 22 57 25 74 l7 31 -62 0 -62 0 20 27 c12 14 20 27 18 29 -7 8 -239 94 -252 94 -8 0 -18 -6 -22 -14 -23 -38 -108 -48 -159 -17 -41 25 -67 83 -67 151 0 99 51 160 132 160 45 0 91 -21 91 -41 0 -5 -25 -9 -55 -9 l-55 0 0 -82 c0 -91 -12 -97 -20 -10 -4 49 -8 57 -25 57 -29 0 -55 -60 -44 -100 14 -48 29 -72 56 -84 38 -17 56 -14 50 9 -5 20 0 20 199 20 l204 0 0 55 c0 170 -76 297 -218 363 -53 25 -67 27 -187 27 -122 0 -134 -2 -192 -29 -69 -32 -148 -107 -182 -173 -31 -62 -44 -165 -31 -248 6 -37 15 -76 21 -86 8 -16 6 -19 -16 -19 -14 0 -25 5 -25 10 0 6 -15 10 -32 10 -18 0 -68 8 -110 17 -61 14 -78 22 -78 35 0 16 11 18 96 18 l95 0 -3 109 c-2 84 0 107 10 104 17 -7 39 13 58 53 9 19 20 34 25 34 5 0 9 5 9 11 0 6 11 25 25 43 14 18 22 36 18 39 -3 4 1 7 11 7 10 0 14 5 10 12 -4 6 -3 8 4 4 6 -3 18 2 28 11 10 10 19 17 21 16 1 -1 15 3 31 10 18 8 27 18 24 27 -3 11 -2 12 8 4 13 -13 53 -7 44 7 -6 10 9 12 71 10 26 -1 35 1 27 7 -17 12 40 22 121 22 31 0 57 4 57 8 0 16 -56 72 -92 91 -21 12 -55 31 -75 42 -40 23 -52 23 -268 1 -38 -4 -92 -3 -120 1 -27 4 -84 10 -125 12 -69 4 -79 2 -130 -26z m38 -287 c4 -116 16 -136 96 -150 51 -10 51 -10 -31 -11 l-83 -1 0 114 c0 94 5 146 14 146 0 0 2 -44 4 -98z"/>
 <path d="M725 10 c-3 -5 3 -10 15 -10 12 0 18 5 15 10 -3 6 -10 10 -15 10 -5 0 -12 -4 -15 -10z"/>
 </g>
<g id="layer106" fill="#8f2201" stroke="none">
 <path d="M730 1844 c-193 -41 -378 -153 -512 -309 -75 -87 -164 -253 -193 -360 -22 -80 -31 -316 -16 -398 51 -269 211 -500 436 -632 36 -21 65 -44 65 -52 0 -10 7 -14 20 -10 11 3 23 1 26 -4 3 -5 9 -7 13 -5 4 3 14 -4 21 -15 8 -11 26 -19 42 -19 15 0 28 -4 28 -8 0 -4 29 -8 65 -8 36 1 69 -4 73 -9 9 -14 262 -18 262 -5 0 6 23 10 50 10 28 0 50 5 50 10 0 6 16 10 35 10 22 0 38 6 41 14 3 8 12 12 21 9 8 -3 18 0 23 6 6 11 24 17 53 20 5 1 6 5 3 10 -3 5 1 12 10 15 8 3 12 2 9 -4 -3 -6 1 -10 9 -10 9 0 16 5 16 10 0 6 7 10 16 10 9 0 24 8 33 18 9 9 28 23 44 31 15 8 27 18 27 23 0 4 7 8 15 8 9 0 27 11 40 25 27 26 33 41 13 29 -7 -4 -6 1 3 12 59 73 85 99 98 96 11 -2 12 0 4 5 -8 6 0 27 30 73 59 93 104 206 127 320 58 286 -26 583 -224 797 -146 157 -312 252 -504 289 -92 18 -286 17 -372 -2z m84 -107 c7 -36 47 -81 84 -92 55 -16 132 39 132 96 0 26 2 27 38 22 111 -16 266 -87 373 -169 230 -177 355 -495 308 -783 -11 -71 -55 -212 -73 -235 -9 -12 -18 -13 -51 -4 -108 29 -183 -89 -112 -178 l21 -27 -59 -55 c-198 -179 -488 -251 -754 -186 -128 31 -311 134 -390 218 l-24 25 27 31 c68 81 -16 206 -116 171 -17 -6 -34 -11 -38 -11 -11 0 -59 123 -75 194 -36 157 -24 334 34 481 109 281 364 487 662 534 4 1 10 -14 13 -32z"/>
 <path d="M590 1559 c-30 -17 -57 -33 -60 -37 -3 -4 -18 -15 -35 -24 -18 -10 -31 -26 -33 -40 -3 -24 1 -26 109 -54 9 -3 27 -13 39 -24 18 -16 23 -34 29 -110 5 -50 13 -96 20 -103 15 -15 88 -37 123 -37 33 0 64 24 84 65 20 42 102 135 120 135 7 0 19 9 26 20 7 11 23 20 35 20 13 0 23 4 23 9 0 5 12 11 28 14 150 30 195 37 245 37 31 0 57 4 57 8 0 16 -56 72 -92 91 -21 12 -55 31 -75 42 -40 23 -52 23 -268 1 -38 -4 -92 -3 -120 1 -27 4 -84 10 -125 12 -69 4 -79 2 -130 -26z"/>
 <path d="M1103 1352 c-106 -38 -197 -124 -233 -220 -27 -70 -30 -215 -6 -279 l15 -43 -24 0 c-14 0 -25 5 -25 10 0 6 -17 10 -37 10 -21 0 -71 7 -110 17 -58 13 -73 20 -73 35 0 16 10 18 95 18 l95 0 0 105 0 105 -95 0 -95 0 -2 53 c-1 28 -1 85 1 125 l3 72 -141 0 -141 0 0 -200 0 -200 -44 22 c-24 13 -40 25 -36 28 10 7 0 71 -10 65 -5 -3 -7 -16 -5 -30 3 -33 -19 -33 -67 0 -20 14 -41 25 -47 25 -14 0 -25 -122 -17 -199 9 -87 31 -181 56 -240 l21 -47 59 4 c57 4 61 3 95 -31 31 -31 35 -41 35 -88 0 -41 -5 -58 -22 -77 l-23 -24 40 -34 c114 -99 235 -162 375 -196 70 -17 108 -19 215 -16 112 4 142 9 217 35 107 37 216 98 288 162 l54 48 -22 28 c-41 51 -24 142 34 180 20 13 40 16 81 13 l55 -5 20 46 c11 25 22 58 25 74 l6 27 -62 0 -61 0 16 25 c9 14 14 28 10 32 -9 10 -226 93 -242 93 -8 0 -14 -4 -14 -10 0 -17 -58 -40 -104 -40 -38 0 -51 5 -80 34 -72 73 -67 214 10 275 33 26 109 28 142 5 34 -24 27 -33 -30 -36 l-53 -3 -3 -92 -3 -93 212 0 212 0 -6 83 c-10 158 -77 266 -205 329 -62 31 -75 33 -182 36 -91 2 -126 -1 -167 -16z"/>
 <path d="M725 10 c-3 -5 3 -10 15 -10 12 0 18 5 15 10 -3 6 -10 10 -15 10 -5 0 -12 -4 -15 -10z"/>
 </g>
<g id="layer107" fill="#5d4437" stroke="none">
 <path d="M730 1844 c-193 -41 -378 -153 -512 -309 -75 -87 -164 -253 -193 -360 -22 -80 -31 -316 -16 -398 51 -269 211 -500 436 -632 36 -21 65 -44 65 -52 0 -10 7 -14 20 -10 11 3 23 1 26 -4 3 -5 9 -7 13 -5 4 3 14 -4 21 -15 8 -11 26 -19 42 -19 15 0 28 -4 28 -8 0 -4 29 -8 65 -8 36 1 69 -4 73 -9 9 -14 262 -18 262 -5 0 6 23 10 50 10 28 0 50 5 50 10 0 6 16 10 35 10 22 0 38 6 41 14 3 8 12 12 21 9 8 -3 18 0 23 6 6 11 24 17 53 20 5 1 6 5 3 10 -3 5 1 12 10 15 8 3 12 2 9 -4 -3 -6 1 -10 9 -10 9 0 16 5 16 10 0 6 7 10 16 10 9 0 24 8 33 18 9 9 28 23 44 31 15 8 27 18 27 23 0 4 7 8 15 8 9 0 27 11 40 25 27 26 33 41 13 29 -7 -4 -6 1 3 12 59 73 85 99 98 96 11 -2 12 0 4 5 -8 6 0 27 30 73 59 93 104 206 127 320 58 286 -26 583 -224 797 -146 157 -312 252 -504 289 -92 18 -286 17 -372 -2z m84 -107 c7 -36 47 -81 84 -92 55 -16 132 39 132 96 0 26 2 27 38 22 111 -16 266 -87 373 -169 230 -177 355 -495 308 -783 -11 -71 -55 -212 -73 -235 -9 -12 -18 -13 -51 -4 -108 29 -183 -89 -112 -178 l21 -27 -59 -55 c-198 -179 -488 -251 -754 -186 -128 31 -311 134 -390 218 l-24 25 27 31 c68 81 -16 206 -116 171 -17 -6 -34 -11 -38 -11 -11 0 -59 123 -75 194 -36 157 -24 334 34 481 109 281 364 487 662 534 4 1 10 -14 13 -32z"/>
 <path d="M676 1519 c-32 -6 -65 -17 -73 -25 -8 -8 -19 -14 -24 -14 -17 0 1 -40 31 -69 39 -37 50 -70 50 -149 0 -37 4 -72 8 -78 14 -21 56 -36 104 -37 52 -1 61 6 99 76 26 49 120 140 165 161 62 29 99 43 144 57 91 27 87 55 -12 78 -39 10 -72 11 -105 5 -56 -10 -219 -11 -283 -2 -25 4 -71 2 -104 -3z"/>
 <path d="M1103 1352 c-106 -38 -197 -124 -233 -220 -27 -70 -30 -215 -6 -279 l15 -43 -24 0 c-14 0 -25 5 -25 10 0 6 -17 10 -37 10 -21 0 -71 7 -110 17 -58 13 -73 20 -73 35 0 16 10 18 95 18 l95 0 0 105 0 105 -95 0 -95 0 -2 53 c-1 28 -1 85 1 125 l3 72 -141 0 -141 0 0 -200 0 -200 -77 40 c-43 21 -90 47 -105 57 -15 9 -31 14 -35 9 -4 -4 -8 -62 -7 -129 0 -128 16 -217 54 -306 l21 -47 59 4 c57 4 61 3 95 -31 31 -31 35 -41 35 -88 0 -41 -5 -58 -22 -77 l-23 -24 40 -34 c114 -99 235 -162 375 -196 70 -17 108 -19 215 -16 112 4 142 9 217 35 107 37 216 98 288 162 l54 48 -22 28 c-41 51 -24 142 34 180 20 13 40 16 81 13 l55 -5 20 46 c11 25 22 58 25 74 l6 27 -62 0 -61 0 16 25 c9 14 14 28 10 32 -9 10 -226 93 -242 93 -8 0 -14 -4 -14 -10 0 -17 -58 -40 -104 -40 -38 0 -51 5 -80 34 -72 73 -67 214 10 275 33 26 109 28 142 5 34 -24 27 -33 -30 -36 l-53 -3 -3 -92 -3 -93 212 0 212 0 -6 83 c-10 158 -77 266 -205 329 -62 31 -75 33 -182 36 -91 2 -126 -1 -167 -16z"/>
 <path d="M725 10 c-3 -5 3 -10 15 -10 12 0 18 5 15 10 -3 6 -10 10 -15 10 -5 0 -12 -4 -15 -10z"/>
 </g>
<g id="layer108" fill="#af3301" stroke="none">
 <path d="M765 1849 c-373 -61 -694 -385 -755 -761 -13 -81 -13 -225 1 -308 56 -349 341 -654 694 -742 124 -31 323 -30 439 1 548 147 838 715 635 1243 -109 282 -379 503 -687 564 -79 15 -245 17 -327 3z m55 -107 c0 -95 140 -131 190 -49 11 18 20 42 20 55 0 28 8 28 114 -3 159 -46 289 -126 396 -242 223 -243 282 -595 151 -900 l-23 -51 -34 14 c-105 44 -196 -87 -119 -171 l24 -25 -64 -57 c-101 -92 -209 -150 -356 -190 -99 -27 -310 -24 -412 5 -142 40 -296 129 -376 216 l-24 26 22 24 c50 53 32 139 -35 171 -40 19 -52 19 -87 0 -27 -14 -28 -13 -47 25 -11 21 -32 78 -46 127 -23 75 -27 107 -27 218 -1 159 15 230 83 370 85 174 206 296 375 380 81 41 210 83 258 84 12 1 17 -7 17 -27z"/>
 <path d="M676 1519 c-32 -6 -65 -17 -73 -25 -8 -8 -19 -14 -24 -14 -17 0 1 -40 31 -69 39 -37 50 -70 50 -149 0 -37 4 -72 8 -78 14 -21 56 -36 104 -37 52 -1 61 6 99 76 26 49 120 140 165 161 62 29 99 43 144 57 91 27 87 55 -12 78 -39 10 -72 11 -105 5 -56 -10 -219 -11 -283 -2 -25 4 -71 2 -104 -3z"/>
 <path d="M1105 1349 c-109 -35 -198 -121 -237 -227 -22 -59 -23 -201 -3 -267 8 -27 13 -50 12 -52 -5 -5 -47 9 -47 16 0 4 -19 8 -42 9 -24 1 -73 9 -110 18 -54 13 -68 20 -68 35 0 17 8 19 95 19 l95 0 0 103 0 102 -97 0 -98 0 -3 128 -3 127 -134 0 -135 0 0 -200 c0 -110 -3 -200 -7 -200 -5 1 -51 25 -103 54 -78 44 -97 51 -103 39 -13 -21 -11 -219 2 -278 6 -27 23 -82 36 -121 l26 -70 58 4 c53 4 61 2 94 -27 48 -43 57 -95 27 -154 l-22 -42 58 -53 c67 -61 223 -142 324 -170 48 -12 102 -17 210 -17 137 1 150 3 240 33 105 36 219 101 294 166 l49 43 -21 28 c-16 20 -22 42 -22 77 0 44 4 54 35 85 33 33 38 35 95 31 l60 -3 19 45 c11 25 22 57 26 73 l7 27 -61 0 -61 0 16 26 c10 14 13 28 8 33 -5 4 -60 27 -122 50 l-113 43 -23 -21 c-112 -105 -272 31 -226 194 20 73 91 123 154 109 31 -6 76 -40 76 -56 0 -4 -27 -8 -60 -8 l-60 0 0 -90 0 -90 211 0 212 0 -6 83 c-3 46 -15 108 -26 138 -38 100 -128 180 -240 213 -76 22 -210 20 -286 -5z"/>
 </g>
<g id="layer109" fill="#ad4b03" stroke="none">
 <path d="M765 1849 c-373 -61 -694 -385 -755 -761 -13 -81 -13 -225 1 -308 56 -349 341 -654 694 -742 124 -31 323 -30 439 1 548 147 838 715 635 1243 -109 282 -379 503 -687 564 -79 15 -245 17 -327 3z m55 -107 c0 -95 140 -131 190 -49 11 18 20 42 20 55 0 28 8 28 114 -3 159 -46 289 -126 396 -242 223 -243 282 -595 151 -900 l-23 -51 -34 14 c-105 44 -196 -87 -119 -171 l24 -25 -64 -57 c-101 -92 -209 -150 -356 -190 -99 -27 -310 -24 -412 5 -142 40 -296 129 -376 216 l-24 26 22 24 c50 53 32 139 -35 171 -40 19 -52 19 -87 0 -27 -14 -28 -13 -47 25 -11 21 -32 78 -46 127 -23 75 -27 107 -27 218 -1 159 15 230 83 370 85 174 206 296 375 380 81 41 210 83 258 84 12 1 17 -7 17 -27z"/>
 <path d="M685 1440 c-9 -10 -14 -23 -11 -28 3 -5 0 -50 -6 -99 -6 -50 -8 -102 -5 -115 8 -31 53 -51 113 -51 48 0 59 8 95 76 20 37 135 157 151 157 4 0 5 7 2 15 -5 11 -2 13 12 8 11 -4 15 -3 11 4 -4 6 0 16 8 23 8 7 15 17 15 22 0 5 -79 8 -184 8 -166 -1 -186 -3 -201 -20z"/>
 <path d="M1105 1349 c-109 -35 -198 -121 -237 -227 -22 -59 -23 -201 -3 -267 8 -27 13 -50 12 -52 -5 -5 -47 9 -47 16 0 4 -19 8 -42 9 -24 1 -73 9 -110 18 -54 13 -68 20 -68 35 0 17 8 19 95 19 l95 0 0 103 0 102 -97 0 -98 0 -3 128 -3 127 -134 0 -135 0 0 -200 c0 -110 -3 -200 -7 -200 -5 1 -51 25 -103 54 -78 44 -97 51 -103 39 -13 -21 -11 -219 2 -278 6 -27 23 -82 36 -121 l26 -70 58 4 c53 4 61 2 94 -27 48 -43 57 -95 27 -154 l-22 -42 58 -53 c67 -61 223 -142 324 -170 48 -12 102 -17 210 -17 137 1 150 3 240 33 105 36 219 101 294 166 l49 43 -21 28 c-16 20 -22 42 -22 77 0 44 4 54 35 85 33 33 38 35 95 31 l60 -3 19 45 c11 25 22 57 26 73 l7 27 -61 0 -61 0 16 26 c10 14 13 28 8 33 -5 4 -60 27 -122 50 l-113 43 -23 -21 c-112 -105 -272 31 -226 194 20 73 91 123 154 109 31 -6 76 -40 76 -56 0 -4 -27 -8 -60 -8 l-60 0 0 -90 0 -90 211 0 212 0 -6 83 c-3 46 -15 108 -26 138 -38 100 -128 180 -240 213 -76 22 -210 20 -286 -5z"/>
 </g>
<g id="layer110" fill="#c24308" stroke="none">
 <path d="M765 1849 c-373 -61 -694 -385 -755 -761 -13 -81 -13 -225 1 -308 56 -349 341 -654 694 -742 124 -31 323 -30 439 1 548 147 838 715 635 1243 -109 282 -379 503 -687 564 -79 15 -245 17 -327 3z m55 -107 c0 -95 140 -131 190 -49 11 18 20 42 20 55 0 28 8 28 114 -3 159 -46 289 -126 396 -242 223 -243 282 -595 151 -900 l-23 -51 -34 14 c-105 44 -196 -87 -119 -171 l24 -25 -64 -57 c-101 -92 -209 -150 -356 -190 -99 -27 -310 -24 -412 5 -142 40 -296 129 -376 216 l-24 26 22 24 c50 53 32 139 -35 171 -40 19 -52 19 -87 0 -27 -14 -28 -13 -47 25 -11 21 -32 78 -46 127 -23 75 -27 107 -27 218 -1 159 15 230 83 370 85 174 206 296 375 380 81 41 210 83 258 84 12 1 17 -7 17 -27z"/>
 <path d="M688 1442 c-10 -13 -12 -43 -8 -130 4 -97 8 -116 24 -128 33 -23 90 -18 120 12 14 15 26 32 26 38 0 25 121 156 143 156 15 0 77 49 77 61 0 6 -69 9 -184 9 -159 -1 -186 -4 -198 -18z"/>
 <path d="M1105 1349 c-109 -35 -198 -121 -237 -227 -22 -59 -23 -201 -3 -267 8 -27 13 -50 12 -52 -5 -5 -47 9 -47 16 0 4 -19 8 -42 9 -24 1 -73 9 -110 18 -54 13 -68 20 -68 35 0 17 8 19 95 19 l95 0 0 103 0 102 -97 0 -98 0 -3 128 -3 127 -134 0 -135 0 0 -200 c0 -110 -3 -200 -6 -200 -7 0 -148 75 -180 97 -20 13 -23 12 -29 -8 -12 -36 -8 -210 5 -274 7 -33 23 -90 37 -126 l24 -65 58 4 c53 4 61 2 94 -27 48 -43 57 -95 27 -154 l-22 -42 58 -53 c67 -61 223 -142 324 -170 48 -12 102 -17 210 -17 137 1 150 3 240 33 105 36 219 101 294 166 l49 43 -21 28 c-16 20 -22 42 -22 77 0 44 4 54 35 85 33 33 38 35 95 31 l60 -3 19 45 c11 25 22 57 26 73 l7 27 -61 0 -61 0 16 26 c10 14 13 28 8 33 -5 4 -60 27 -122 50 l-113 43 -23 -21 c-112 -105 -272 31 -226 194 20 73 91 123 154 109 31 -6 76 -40 76 -56 0 -4 -27 -8 -60 -8 l-60 0 0 -90 0 -90 211 0 212 0 -6 83 c-3 46 -15 108 -26 138 -38 100 -128 180 -240 213 -76 22 -210 20 -286 -5z"/>
 </g>
<g id="layer111" fill="#6d5956" stroke="none">
 <path d="M765 1849 c-373 -61 -694 -385 -755 -761 -13 -81 -13 -225 1 -308 56 -349 341 -654 694 -742 124 -31 323 -30 439 1 548 147 838 715 635 1243 -109 282 -379 503 -687 564 -79 15 -245 17 -327 3z m55 -107 c0 -95 140 -131 190 -49 11 18 20 42 20 55 0 28 8 28 114 -3 159 -46 289 -126 396 -242 223 -243 282 -595 151 -900 l-23 -51 -34 14 c-105 44 -196 -87 -119 -171 l24 -25 -64 -57 c-101 -92 -209 -150 -356 -190 -99 -27 -310 -24 -412 5 -142 40 -296 129 -376 216 l-24 26 22 24 c50 53 32 139 -35 171 -40 19 -52 19 -87 0 -27 -14 -28 -13 -47 25 -11 21 -32 78 -46 127 -23 75 -27 107 -27 218 -1 159 15 230 83 370 85 174 206 296 375 380 81 41 210 83 258 84 12 1 17 -7 17 -27z"/>
 <path d="M845 1413 c-27 -2 -57 -6 -65 -10 -8 -3 -21 -7 -28 -9 -24 -5 -51 -35 -56 -63 -18 -96 -17 -120 3 -140 31 -31 91 -28 125 5 14 15 26 32 26 38 0 12 15 34 61 90 29 35 49 69 49 85 0 11 -12 11 -115 4z"/>
 <path d="M1105 1349 c-109 -35 -198 -121 -237 -227 -22 -59 -23 -201 -3 -267 8 -27 13 -50 12 -52 -5 -5 -47 9 -47 16 0 4 -19 8 -42 9 -24 1 -73 9 -110 18 -54 13 -68 20 -68 35 0 17 8 19 95 19 l95 0 0 103 0 102 -97 0 -98 0 -3 128 -3 127 -134 0 -135 0 0 -200 c0 -110 -3 -200 -6 -200 -7 0 -148 75 -180 97 -20 13 -23 12 -29 -8 -12 -36 -8 -210 5 -274 7 -33 23 -90 37 -126 l24 -65 58 4 c53 4 61 2 94 -27 48 -43 57 -95 27 -154 l-22 -42 58 -53 c67 -61 223 -142 324 -170 48 -12 102 -17 210 -17 137 1 150 3 240 33 105 36 219 101 294 166 l49 43 -21 28 c-16 20 -22 42 -22 77 0 44 4 54 35 85 33 33 38 35 95 31 l60 -3 19 45 c11 25 22 57 26 73 l7 27 -61 0 -61 0 16 26 c10 14 13 28 8 33 -5 4 -60 27 -122 50 l-113 43 -23 -21 c-112 -105 -272 31 -226 194 20 73 91 123 154 109 31 -6 76 -40 76 -56 0 -4 -27 -8 -60 -8 l-60 0 0 -90 0 -90 211 0 212 0 -6 83 c-3 46 -15 108 -26 138 -38 100 -128 180 -240 213 -76 22 -210 20 -286 -5z"/>
 </g>
<g id="layer112" fill="#cc5101" stroke="none">
 <path d="M771 1849 c-91 -15 -232 -67 -316 -117 -147 -86 -310 -270 -380 -427 -53 -120 -69 -207 -69 -375 0 -141 3 -163 28 -245 170 -559 784 -829 1301 -572 188 93 360 279 440 475 64 157 83 306 60 459 -27 175 -66 280 -152 411 -86 129 -279 282 -431 341 -142 54 -333 74 -481 50z m49 -110 c0 -20 10 -40 29 -60 64 -64 181 -18 181 71 0 20 4 21 43 15 72 -12 204 -61 275 -103 38 -23 103 -73 145 -112 176 -164 267 -376 267 -617 0 -117 -17 -204 -60 -307 -31 -74 -42 -87 -55 -66 -3 6 -27 10 -51 10 -37 0 -51 -6 -75 -29 -43 -43 -38 -120 10 -159 14 -11 11 -16 -24 -48 -114 -101 -243 -174 -370 -209 -82 -22 -255 -30 -341 -16 -164 28 -320 102 -433 207 -58 54 -61 57 -42 70 25 18 45 77 36 106 -4 13 -19 35 -33 51 -21 22 -34 27 -73 27 -26 0 -51 -4 -54 -10 -13 -21 -23 -8 -53 69 -185 468 79 990 566 1122 99 27 112 25 112 -12z"/>
 <path d="M845 1413 c-27 -2 -57 -6 -65 -10 -8 -3 -21 -7 -28 -9 -24 -5 -51 -35 -56 -63 -18 -96 -17 -120 3 -140 31 -31 91 -28 125 5 14 15 26 32 26 38 0 12 15 34 61 90 29 35 49 69 49 85 0 11 -12 11 -115 4z"/>
 <path d="M1137 1360 c-104 -27 -212 -115 -256 -210 -34 -74 -42 -213 -16 -290 9 -28 14 -54 11 -57 -3 -3 -18 -1 -33 5 -15 6 -57 15 -93 21 -109 18 -140 30 -140 51 0 18 7 20 95 20 l95 0 0 100 0 99 -97 3 -98 3 -3 128 -3 127 -133 0 -133 0 -1 -197 c-1 -108 -4 -198 -6 -200 -3 -3 -43 15 -90 40 -47 24 -86 41 -86 36 0 -4 6 -10 13 -13 9 -3 7 -8 -5 -15 -9 -6 -24 -31 -34 -56 -25 -67 -12 -181 38 -313 l20 -52 46 5 c112 14 189 -100 131 -194 l-20 -33 23 -25 c32 -35 133 -106 193 -136 28 -13 88 -37 135 -52 76 -25 100 -28 225 -29 105 -1 156 4 205 17 97 27 257 109 327 169 l61 52 -18 26 c-71 99 27 241 139 202 33 -12 29 -16 61 76 l19 52 -28 0 c-16 0 -43 3 -60 6 -31 6 -31 7 -15 31 8 14 14 27 11 29 -3 3 -57 25 -121 50 l-117 45 -30 -26 c-40 -33 -72 -40 -119 -26 -94 28 -139 163 -87 261 23 44 74 80 113 80 50 0 104 -34 104 -64 0 -3 -25 -6 -55 -6 -50 0 -55 -2 -55 -22 0 -13 -3 -53 -7 -90 l-6 -68 212 0 211 0 0 53 c-1 167 -74 288 -214 357 -61 30 -77 34 -169 36 -56 2 -119 -1 -140 -6z"/>
 </g>
<g id="layer113" fill="#d66402" stroke="none">
 <path d="M771 1849 c-91 -15 -232 -67 -316 -117 -147 -86 -310 -270 -380 -427 -53 -120 -69 -207 -69 -375 0 -141 3 -163 28 -245 170 -559 784 -829 1301 -572 188 93 360 279 440 475 64 157 83 306 60 459 -27 175 -66 280 -152 411 -86 129 -279 282 -431 341 -142 54 -333 74 -481 50z m49 -110 c0 -20 10 -40 29 -60 64 -64 181 -18 181 71 0 20 4 21 43 15 72 -12 204 -61 275 -103 38 -23 103 -73 145 -112 176 -164 267 -376 267 -617 0 -117 -17 -204 -60 -307 -31 -74 -42 -87 -55 -66 -3 6 -27 10 -51 10 -37 0 -51 -6 -75 -29 -43 -43 -38 -120 10 -159 14 -11 11 -16 -24 -48 -114 -101 -243 -174 -370 -209 -82 -22 -255 -30 -341 -16 -164 28 -320 102 -433 207 -58 54 -61 57 -42 70 25 18 45 77 36 106 -4 13 -19 35 -33 51 -21 22 -34 27 -73 27 -26 0 -51 -4 -54 -10 -13 -21 -23 -8 -53 69 -185 468 79 990 566 1122 99 27 112 25 112 -12z"/>
 <path d="M1137 1360 c-104 -27 -212 -115 -256 -210 -34 -74 -42 -213 -16 -290 9 -28 14 -54 11 -57 -3 -3 -18 -1 -33 5 -15 6 -57 15 -93 21 -109 18 -140 30 -140 51 0 18 7 20 95 20 l95 0 0 100 0 99 -97 3 -98 3 -3 128 -3 127 -133 0 -133 0 -1 -197 c-1 -108 -4 -198 -6 -200 -3 -3 -43 15 -90 40 -47 24 -86 41 -86 36 0 -4 6 -10 13 -13 9 -3 7 -8 -5 -15 -9 -6 -24 -31 -34 -56 -25 -67 -12 -181 38 -313 l20 -52 46 5 c112 14 189 -100 131 -194 l-20 -33 23 -25 c32 -35 133 -106 193 -136 28 -13 88 -37 135 -52 76 -25 100 -28 225 -29 105 -1 156 4 205 17 97 27 257 109 327 169 l61 52 -18 26 c-71 99 27 241 139 202 33 -12 29 -16 61 76 l19 52 -28 0 c-16 0 -43 3 -60 6 -31 6 -31 7 -15 31 8 14 14 27 11 29 -3 3 -57 25 -121 50 l-117 45 -30 -26 c-40 -33 -72 -40 -119 -26 -94 28 -139 163 -87 261 23 44 74 80 113 80 50 0 104 -34 104 -64 0 -3 -25 -6 -55 -6 -50 0 -55 -2 -55 -22 0 -13 -3 -53 -7 -90 l-6 -68 212 0 211 0 0 53 c-1 167 -74 288 -214 357 -61 30 -77 34 -169 36 -56 2 -119 -1 -140 -6z"/>
 <path d="M758 1308 c-32 -19 -58 -58 -58 -89 0 -18 34 -39 63 -39 42 0 50 7 76 59 43 83 2 117 -81 69z"/>
 </g>
<g id="layer114" fill="#9b736d" stroke="none">
 <path d="M771 1849 c-91 -15 -232 -67 -316 -117 -147 -86 -310 -270 -380 -427 -53 -120 -69 -207 -69 -375 0 -141 3 -163 28 -245 170 -559 784 -829 1301 -572 188 93 360 279 440 475 64 157 83 306 60 459 -27 175 -66 280 -152 411 -86 129 -279 282 -431 341 -142 54 -333 74 -481 50z m49 -110 c0 -20 10 -40 29 -60 64 -64 181 -18 181 71 0 20 4 21 43 15 72 -12 204 -61 275 -103 38 -23 103 -73 145 -112 176 -164 267 -376 267 -617 0 -117 -17 -204 -60 -307 -31 -74 -42 -87 -55 -66 -3 6 -27 10 -51 10 -37 0 -51 -6 -75 -29 -43 -43 -38 -120 10 -159 14 -11 11 -16 -24 -48 -114 -101 -243 -174 -370 -209 -82 -22 -255 -30 -341 -16 -164 28 -320 102 -433 207 -58 54 -61 57 -42 70 25 18 45 77 36 106 -4 13 -19 35 -33 51 -21 22 -34 27 -73 27 -26 0 -51 -4 -54 -10 -13 -21 -23 -8 -53 69 -185 468 79 990 566 1122 99 27 112 25 112 -12z"/>
 <path d="M1137 1360 c-104 -27 -212 -115 -256 -210 -34 -74 -42 -213 -16 -290 9 -28 14 -54 11 -57 -3 -3 -18 -1 -33 5 -15 6 -57 15 -93 21 -109 18 -140 30 -140 51 0 18 7 20 95 20 l95 0 0 100 0 99 -97 3 -98 3 -3 128 -3 127 -133 0 -133 0 -1 -197 c-1 -108 -4 -198 -6 -200 -3 -3 -43 15 -90 40 -47 24 -86 41 -86 36 0 -4 6 -10 13 -13 9 -3 7 -8 -5 -15 -9 -6 -24 -31 -34 -56 -25 -67 -12 -181 38 -313 l20 -52 46 5 c112 14 189 -100 131 -194 l-20 -33 23 -25 c32 -35 133 -106 193 -136 28 -13 88 -37 135 -52 76 -25 100 -28 225 -29 105 -1 156 4 205 17 97 27 257 109 327 169 l61 52 -18 26 c-71 99 27 241 139 202 33 -12 29 -16 61 76 l19 52 -28 0 c-16 0 -43 3 -60 6 -31 6 -31 7 -15 31 8 14 14 27 11 29 -3 3 -57 25 -121 50 l-117 45 -30 -26 c-40 -33 -72 -40 -119 -26 -94 28 -139 163 -87 261 23 44 74 80 113 80 50 0 104 -34 104 -64 0 -3 -25 -6 -55 -6 -50 0 -55 -2 -55 -22 0 -13 -3 -53 -7 -90 l-6 -68 212 0 211 0 0 53 c-1 167 -74 288 -214 357 -61 30 -77 34 -169 36 -56 2 -119 -1 -140 -6z"/>
 </g>
<g id="layer115" fill="#947e82" stroke="none">
 <path d="M771 1849 c-91 -15 -232 -67 -316 -117 -147 -86 -310 -270 -380 -427 -53 -120 -69 -207 -69 -375 0 -141 3 -163 28 -245 170 -559 784 -829 1301 -572 188 93 360 279 440 475 64 157 83 306 60 459 -27 175 -66 280 -152 411 -86 129 -279 282 -431 341 -142 54 -333 74 -481 50z m49 -110 c0 -48 47 -89 102 -89 24 0 50 6 58 13 27 21 50 60 50 86 0 22 2 23 43 17 72 -12 203 -61 278 -106 130 -77 256 -214 327 -355 55 -111 73 -188 79 -335 6 -151 -10 -242 -63 -360 -26 -59 -37 -70 -49 -50 -3 6 -27 10 -51 10 -93 0 -138 -98 -78 -169 14 -17 22 -35 19 -41 -17 -28 -166 -135 -236 -170 -113 -57 -205 -81 -340 -87 -233 -11 -442 65 -605 219 -51 48 -53 52 -35 65 25 17 44 74 35 107 -3 14 -20 38 -37 52 -25 21 -38 25 -71 22 -23 -3 -48 -8 -58 -12 -13 -6 -21 7 -46 71 -48 126 -57 178 -57 318 1 144 12 202 60 316 100 239 313 425 559 489 104 28 116 26 116 -11z"/>
 <path d="M1130 1356 c-106 -30 -204 -111 -248 -205 -33 -73 -42 -203 -18 -285 10 -32 15 -61 12 -63 -3 -3 -18 -1 -33 5 -15 6 -59 16 -98 21 -108 17 -130 25 -133 49 -3 21 0 22 92 22 l96 0 0 100 0 99 -97 3 -98 3 -3 128 -3 127 -133 0 -133 0 -1 -232 c-1 -185 -4 -234 -15 -245 -12 -13 -15 -11 -20 14 -4 19 -15 31 -34 39 -29 11 -36 7 -93 -64 -10 -13 -21 -23 -24 -23 -31 4 -33 0 -25 -47 9 -60 26 -125 46 -175 15 -37 16 -38 57 -32 116 18 195 -97 135 -195 l-22 -35 49 -43 c234 -208 586 -259 872 -126 77 35 181 104 219 146 l23 24 -21 40 c-29 56 -21 107 25 153 34 33 41 36 97 36 l61 0 19 45 c30 74 27 80 -36 80 -60 0 -63 4 -39 38 9 13 14 26 11 28 -3 3 -58 25 -122 50 l-117 44 -30 -25 c-39 -33 -71 -40 -118 -26 -94 28 -139 163 -87 261 25 47 74 80 120 80 47 0 97 -34 97 -66 0 -2 -25 -4 -55 -4 -50 0 -55 -2 -55 -22 0 -13 -3 -53 -7 -90 l-6 -68 212 0 211 0 0 53 c-1 109 -52 241 -113 293 -109 91 -279 128 -417 90z"/>
 </g>
<g id="layer116" fill="#a7857b" stroke="none">
 <path d="M763 1845 c-95 -17 -162 -40 -254 -86 -75 -37 -228 -150 -230 -169 -1 -6 -2 -14 -3 -18 -2 -13 -33 -42 -45 -42 -18 0 -91 -100 -131 -180 -51 -102 -77 -190 -89 -307 -22 -198 4 -348 89 -518 126 -254 357 -430 643 -490 90 -20 268 -19 365 1 338 70 619 336 706 669 32 125 37 224 16 357 -26 168 -64 272 -143 388 -43 63 -147 169 -160 165 -7 -3 -26 8 -42 23 -17 15 -25 23 -18 18 25 -17 3 18 -23 37 -182 133 -452 194 -681 152z m57 -106 c0 -20 10 -40 29 -60 58 -58 162 -24 177 58 l7 35 43 -7 c236 -35 482 -221 594 -448 67 -137 90 -230 90 -372 0 -135 -9 -186 -52 -302 -28 -74 -37 -87 -53 -85 -90 16 -104 15 -135 -16 -40 -41 -42 -97 -3 -143 l27 -32 -59 -53 c-325 -289 -821 -285 -1131 8 -51 48 -53 52 -35 65 25 17 44 74 35 107 -3 14 -20 38 -37 52 -25 21 -38 25 -71 22 -23 -3 -48 -8 -58 -12 -13 -6 -22 8 -48 76 -63 161 -76 368 -34 523 63 235 249 453 469 550 68 31 179 63 218 64 24 1 27 -3 27 -30z"/>
 <path d="M1165 1364 c-93 -24 -193 -76 -164 -86 7 -2 5 -9 -7 -18 -15 -13 -17 -13 -9 -1 10 18 -43 -19 -67 -46 -62 -68 -87 -248 -51 -355 l20 -58 -29 0 c-15 0 -28 4 -28 9 0 10 -130 27 -182 23 -31 -3 -38 0 -39 15 0 10 -2 26 -4 36 -3 15 7 17 96 17 l99 0 0 100 0 100 -100 0 -100 0 0 59 c0 38 -4 61 -12 64 -10 4 -10 7 0 18 6 7 12 37 12 66 l0 53 -136 0 -137 0 6 -61 c3 -35 11 -66 19 -70 11 -7 10 -11 -2 -19 -12 -7 -15 -34 -16 -127 -1 -65 -2 -164 -3 -220 -1 -104 -15 -144 -20 -55 -4 80 -17 117 -48 128 -29 10 -38 3 -90 -60 -7 -8 -18 -48 -23 -87 -9 -64 -8 -80 10 -135 l21 -62 52 4 c62 6 106 -17 133 -67 20 -40 14 -111 -12 -141 -19 -20 -18 -21 26 -60 289 -252 704 -274 1015 -53 33 24 70 54 82 67 l23 24 -21 40 c-31 59 -21 109 31 158 40 37 44 38 96 33 l53 -5 21 54 c11 30 20 59 20 64 0 6 -25 10 -55 10 -60 0 -63 4 -39 38 9 13 14 25 12 27 -2 2 -57 24 -122 49 -118 46 -119 46 -140 27 -75 -68 -165 -47 -213 49 -41 80 -21 195 41 235 54 36 144 27 166 -16 15 -28 13 -29 -45 -29 l-55 0 0 -67 c0 -38 -3 -78 -6 -90 l-6 -23 211 0 211 0 0 44 c0 57 -26 169 -50 215 -30 57 -75 105 -101 107 -32 2 -59 14 -59 26 0 5 5 6 12 2 6 -4 8 -3 5 4 -20 31 -232 64 -302 46z"/>
 </g>
<g id="layer117" fill="#97928f" stroke="none">
 <path d="M763 1845 c-95 -17 -162 -40 -254 -86 -75 -37 -228 -150 -230 -169 -1 -6 -2 -14 -3 -18 -2 -13 -33 -42 -45 -42 -18 0 -91 -100 -131 -180 -51 -102 -77 -190 -89 -307 -22 -198 4 -348 89 -518 126 -254 357 -430 643 -490 90 -20 268 -19 365 1 338 70 619 336 706 669 32 125 37 224 16 357 -26 168 -64 272 -143 388 -43 63 -147 169 -160 165 -7 -3 -26 8 -42 23 -17 15 -25 23 -18 18 25 -17 3 18 -23 37 -182 133 -452 194 -681 152z m57 -106 c0 -20 10 -40 29 -60 58 -58 162 -24 177 58 l7 35 43 -7 c24 -3 75 -17 112 -29 142 -49 236 -111 350 -230 65 -70 92 -108 132 -189 67 -137 90 -230 90 -372 0 -135 -9 -186 -52 -302 -28 -74 -37 -87 -53 -85 -90 16 -104 15 -135 -16 -41 -41 -42 -97 -3 -143 l27 -32 -49 -45 c-331 -297 -828 -296 -1142 0 -45 44 -51 53 -37 61 24 14 45 71 38 107 -4 17 -20 42 -37 56 -25 21 -38 25 -71 22 -23 -3 -48 -8 -58 -12 -13 -6 -22 8 -48 76 -63 161 -76 368 -34 523 63 235 249 453 469 550 68 31 179 63 218 64 24 1 27 -3 27 -30z"/>
 <path d="M1165 1364 c-93 -24 -193 -76 -164 -86 7 -2 5 -9 -7 -18 -15 -13 -17 -13 -9 -1 10 18 -43 -19 -67 -46 -62 -68 -87 -248 -51 -355 19 -55 19 -57 1 -61 -10 -3 -24 1 -31 7 -15 15 -134 32 -189 28 -31 -3 -38 0 -39 15 0 10 -2 26 -4 36 -3 15 7 17 96 17 l99 0 0 100 0 100 -100 0 -100 0 0 59 c0 38 -4 61 -12 64 -10 4 -10 7 0 18 6 7 12 37 12 66 l0 53 -136 0 -137 0 6 -61 c3 -35 11 -66 19 -70 11 -7 10 -11 -2 -19 -12 -7 -15 -34 -16 -127 -1 -65 -2 -164 -3 -220 -1 -85 -4 -103 -16 -103 -9 0 -18 7 -21 15 -8 21 -74 21 -74 -1 0 -8 -4 -12 -10 -9 -5 3 -10 0 -10 -7 0 -9 -3 -9 -10 2 -6 10 -10 11 -10 3 0 -7 -9 -13 -20 -13 -26 0 -26 -20 1 -97 l20 -61 52 4 c62 6 92 -8 125 -56 19 -28 23 -44 19 -83 -2 -27 -12 -56 -23 -68 -19 -21 -19 -22 26 -61 162 -141 386 -219 591 -204 95 6 234 43 312 82 61 31 163 102 194 136 l23 24 -20 39 c-24 47 -25 74 -6 120 22 52 69 77 133 71 l52 -4 21 54 c11 30 20 59 20 64 0 6 -25 10 -55 10 -60 0 -63 4 -39 38 9 13 14 25 12 27 -2 2 -57 24 -122 49 -118 46 -119 46 -140 27 -75 -68 -165 -47 -213 49 -59 115 6 260 115 260 51 0 102 -33 102 -66 0 -2 -25 -4 -55 -4 l-55 0 0 -90 0 -90 205 0 205 0 0 44 c0 57 -26 169 -50 215 -30 57 -75 105 -101 107 -32 2 -59 14 -59 26 0 5 5 6 12 2 6 -4 8 -3 5 4 -20 31 -232 64 -302 46z"/>
 </g>
<g id="layer118" fill="#ac9692" stroke="none">
 <path d="M767 1845 c-101 -19 -186 -49 -267 -91 -89 -47 -162 -102 -154 -116 4 -6 3 -8 -4 -4 -6 3 -13 2 -17 -4 -3 -5 -2 -10 4 -10 6 0 -18 -29 -52 -65 -35 -36 -68 -65 -75 -65 -32 0 -138 -193 -167 -305 -21 -79 -32 -231 -17 -221 8 5 12 -4 12 -28 0 -26 -4 -36 -16 -36 -13 0 -14 -9 -9 -57 44 -377 296 -678 662 -790 79 -24 104 -27 248 -27 211 -1 311 25 491 129 91 53 246 208 300 300 90 155 124 270 131 448 5 109 4 127 -10 127 -17 0 -29 58 -13 63 16 5 -10 117 -46 206 -52 123 -177 291 -219 291 -9 0 -98 65 -149 108 -13 12 -13 13 5 8 l20 -6 -20 16 c-37 31 -184 95 -262 115 -105 27 -275 33 -376 14z m57 -114 c17 -110 181 -106 202 6 l7 35 43 -7 c151 -22 321 -114 441 -236 78 -80 111 -126 156 -214 62 -123 79 -195 85 -346 5 -152 -3 -202 -51 -329 -27 -71 -36 -84 -52 -82 -90 16 -104 15 -135 -16 -40 -41 -42 -97 -3 -143 l27 -32 -49 -45 c-326 -296 -828 -296 -1141 0 -51 48 -53 52 -35 65 32 22 45 75 27 116 -19 48 -56 70 -103 65 -21 -3 -45 -8 -54 -12 -12 -5 -21 4 -36 41 -138 326 -81 663 154 913 111 118 251 203 404 244 92 25 105 22 113 -23z"/>
 <path d="M1132 1355 c-71 -20 -118 -45 -103 -54 14 -9 -49 -61 -73 -61 -19 0 -71 -70 -85 -113 -15 -52 -23 -119 -12 -113 5 4 12 2 16 -4 3 -6 -1 -13 -9 -16 -31 -12 -14 -121 34 -216 l28 -57 -24 16 c-13 8 -24 12 -24 8 0 -4 -8 -1 -17 6 -12 10 -15 10 -9 1 4 -7 0 -19 -8 -28 -15 -14 -16 -10 -16 39 l0 54 -61 7 c-34 3 -84 6 -110 6 -33 0 -49 4 -49 13 0 6 -3 22 -6 35 -6 22 -5 22 95 22 l101 0 0 40 c0 29 -4 40 -15 40 -8 0 -15 7 -15 15 0 8 7 15 15 15 11 0 15 12 15 45 l0 45 -100 0 -100 0 0 54 c0 39 -4 55 -15 60 -19 7 -19 30 0 50 8 8 15 32 15 55 l0 41 -136 0 -137 0 7 -52 c4 -29 11 -54 17 -56 14 -5 11 -60 -3 -65 -18 -5 -18 -199 0 -205 6 -2 12 -10 12 -18 0 -8 -6 -11 -15 -8 -13 5 -15 -14 -15 -142 0 -81 -3 -144 -7 -141 -3 4 -8 22 -10 39 -5 56 -22 78 -60 78 -23 0 -33 -5 -33 -16 0 -8 -4 -13 -9 -10 -5 4 -12 0 -14 -6 -4 -10 -6 -10 -6 0 -1 10 -5 9 -18 -3 -13 -14 -14 -18 -2 -25 11 -7 10 -10 -4 -16 -22 -8 -22 -32 0 -57 10 -11 13 -17 6 -14 -8 5 -9 0 0 -22 10 -28 13 -29 61 -25 61 6 91 -8 123 -55 30 -45 31 -108 1 -146 l-22 -28 50 -43 c177 -154 431 -229 652 -194 153 25 315 100 416 192 l47 43 -21 40 c-24 46 -25 73 -6 120 22 51 69 77 133 72 48 -3 53 -2 63 22 17 42 20 70 8 78 -8 4 -5 9 8 14 12 5 -1 8 -38 8 -32 1 -58 4 -58 9 0 4 7 18 16 30 9 13 14 25 12 27 -2 2 -57 24 -123 49 -117 45 -120 45 -140 27 -51 -47 -104 -53 -156 -18 -38 25 -79 97 -79 139 0 20 -4 26 -15 22 -17 -7 -21 11 -5 21 6 4 22 29 36 56 28 56 73 89 122 89 51 0 102 -33 102 -66 0 -2 -25 -4 -55 -4 -52 0 -55 -1 -55 -25 0 -14 5 -25 10 -25 6 0 10 -7 10 -15 0 -8 -4 -15 -10 -15 -5 0 -10 -22 -10 -50 l0 -50 205 0 205 0 0 49 c0 54 -8 84 -20 76 -4 -3 -10 2 -14 10 -3 8 -1 15 4 15 31 0 -16 122 -68 178 -16 17 -39 32 -50 32 -29 0 -123 49 -97 51 15 0 11 5 -15 16 -50 22 -203 26 -268 8z m451 -657 c-13 -6 -23 -15 -23 -20 0 -4 -5 -8 -12 -8 -6 0 -3 9 7 20 10 11 25 20 34 19 11 0 9 -4 -6 -11z m71 -5 c5 -12 4 -13 -7 -5 -8 7 -16 9 -19 6 -3 -3 -8 -1 -11 3 -3 5 3 9 13 10 10 1 21 -5 24 -14z"/>
 </g>
<g id="layer119" fill="#aba7a8" stroke="none">
 <path d="M767 1845 c-101 -19 -186 -49 -267 -91 -89 -47 -162 -102 -154 -116 4 -6 3 -8 -4 -4 -6 3 -13 2 -17 -4 -3 -5 -2 -10 4 -10 6 0 -18 -29 -52 -65 -35 -36 -68 -65 -75 -65 -32 0 -138 -193 -167 -305 -21 -79 -32 -231 -17 -221 8 5 12 -4 12 -28 0 -26 -4 -36 -16 -36 -13 0 -14 -9 -9 -57 44 -377 296 -678 662 -790 79 -24 104 -27 248 -27 211 -1 311 25 491 129 91 53 246 208 300 300 90 155 124 270 131 448 5 109 4 127 -10 127 -17 0 -29 58 -13 63 16 5 -10 117 -46 206 -52 123 -177 291 -219 291 -9 0 -98 65 -149 108 -13 12 -13 13 5 8 l20 -6 -20 16 c-37 31 -184 95 -262 115 -105 27 -275 33 -376 14z m53 -95 c0 -55 49 -100 109 -100 41 0 89 43 97 87 7 35 7 35 49 30 93 -13 224 -69 328 -139 112 -76 236 -224 288 -344 57 -133 64 -169 64 -349 0 -162 -1 -174 -29 -250 -41 -116 -54 -138 -74 -129 -9 4 -36 9 -59 12 -37 3 -47 0 -73 -26 -41 -41 -42 -97 -3 -143 l27 -32 -58 -52 c-82 -73 -195 -139 -306 -177 -91 -31 -102 -32 -250 -33 -176 0 -233 11 -364 73 -90 42 -143 77 -215 145 l-52 49 26 25 c59 60 14 173 -70 173 -20 0 -45 -5 -57 -11 -11 -6 -22 -8 -25 -6 -16 17 -65 162 -79 235 -22 116 -15 288 16 387 42 133 105 239 204 344 105 109 207 173 356 222 104 35 150 37 150 9z"/>
 <path d="M1140 1357 c-66 -19 -123 -49 -110 -57 13 -8 -51 -60 -74 -60 -20 0 -62 -56 -79 -106 -19 -54 -30 -127 -18 -120 5 4 12 2 16 -4 3 -6 -1 -13 -11 -17 -34 -13 3 -179 57 -255 11 -15 17 -33 13 -39 -4 -7 -3 -9 3 -6 6 4 18 1 27 -6 17 -12 17 -14 1 -27 -9 -7 -15 -9 -13 -4 2 5 0 9 -3 9 -4 0 -17 11 -29 25 -12 14 -18 19 -14 11 5 -10 3 -13 -8 -8 -10 3 -20 -3 -28 -18 -22 -41 -40 -8 -40 73 l0 69 -67 6 c-38 4 -87 7 -109 7 -35 0 -43 4 -48 23 -12 46 -11 47 94 47 l100 0 0 40 c0 29 -4 40 -15 40 -8 0 -15 6 -15 14 0 8 7 16 15 20 10 3 15 19 15 46 l0 40 -100 0 -100 0 0 54 c0 39 -4 55 -15 60 -19 7 -19 30 0 50 8 8 15 32 15 55 l0 41 -136 0 -137 0 7 -52 c4 -29 11 -54 17 -56 14 -5 11 -60 -3 -65 -18 -5 -18 -199 0 -205 16 -5 16 -33 0 -29 -10 1 -14 -35 -16 -153 -2 -108 -6 -156 -15 -162 -26 -16 -106 -9 -127 12 -11 11 -20 16 -20 12 0 -5 3 -12 8 -16 4 -4 7 -18 7 -29 0 -15 5 -21 15 -18 8 2 25 3 37 3 14 0 20 5 16 12 -4 7 -2 7 7 -1 7 -6 19 -9 26 -6 8 3 14 0 14 -7 0 -7 7 -10 17 -6 10 4 14 4 10 0 -3 -4 7 -22 23 -41 39 -43 42 -115 8 -158 l-22 -28 40 -34 c123 -107 257 -171 414 -199 98 -17 159 -17 265 1 153 27 293 94 405 193 l42 37 -21 35 c-26 44 -27 90 -1 139 10 21 16 41 13 45 -4 3 7 6 23 7 16 0 38 5 49 10 19 9 18 9 -2 5 -13 -2 -23 0 -23 4 0 5 -6 10 -12 13 -7 2 -5 3 4 2 23 -4 34 14 18 28 -7 7 -10 8 -7 2 3 -5 -5 -10 -18 -10 -13 0 -21 3 -18 8 2 4 8 7 13 7 9 0 69 57 69 65 1 3 7 18 15 34 l15 29 -122 46 c-119 44 -122 45 -142 27 -51 -47 -104 -53 -156 -18 -38 25 -79 97 -79 139 0 20 -4 26 -15 22 -18 -7 -20 7 -3 24 6 6 21 31 33 54 39 77 117 108 184 73 24 -12 41 -33 41 -51 0 -2 -25 -4 -55 -4 -52 0 -55 -1 -55 -25 0 -14 5 -25 10 -25 6 0 10 -7 10 -15 0 -8 -4 -15 -10 -15 -5 0 -10 -22 -10 -50 l0 -50 205 0 205 0 0 49 c0 54 -8 84 -20 76 -4 -3 -10 2 -14 10 -3 8 -1 15 4 15 31 0 -16 122 -68 178 -16 17 -39 32 -50 32 -12 0 -42 11 -68 24 -36 18 -43 25 -28 28 35 8 -57 29 -146 34 -53 2 -102 -1 -130 -9z"/>
 <path d="M1600 615 c0 -8 6 -15 14 -15 8 0 21 -3 29 -6 9 -3 16 3 20 15 4 18 1 21 -29 21 -24 0 -34 -5 -34 -15z"/>
 </g>
<g id="layer120" fill="#d0b7ae" stroke="none">
 <path d="M801 1849 c-121 -15 -344 -100 -358 -135 -3 -7 -10 -11 -16 -7 -6 3 -7 1 -3 -5 4 -6 -5 -21 -21 -34 -15 -12 -71 -66 -124 -120 -52 -54 -100 -98 -106 -98 -12 0 -49 -54 -81 -116 -44 -86 -93 -284 -70 -284 14 0 9 -140 -5 -155 -20 -20 -3 -140 36 -255 179 -522 776 -769 1272 -525 307 150 496 440 512 783 6 120 5 123 -16 129 -16 4 -21 13 -21 37 0 17 -4 48 -9 68 -6 26 -5 38 3 41 16 5 -7 85 -49 172 -39 81 -137 211 -155 207 -7 -2 -38 19 -69 45 -72 62 -116 94 -168 123 -23 13 -40 26 -38 30 22 35 -273 113 -410 109 -22 -1 -69 -5 -104 -10z m19 -99 c0 -55 49 -100 109 -100 40 0 89 43 97 86 7 40 17 42 108 18 146 -37 337 -156 427 -266 111 -136 146 -211 209 -455 6 -24 16 -42 23 -40 9 1 12 -24 10 -98 -2 -136 -12 -180 -41 -180 -19 0 -28 -13 -55 -80 -34 -85 -30 -82 -100 -68 -92 18 -152 -94 -90 -168 l27 -32 -49 -45 c-114 -102 -231 -165 -380 -202 -78 -19 -107 -22 -225 -17 -102 3 -152 10 -205 27 -132 42 -234 101 -350 203 l-40 35 27 27 c41 40 40 105 -2 147 -26 26 -36 29 -73 26 -23 -3 -49 -8 -58 -12 -13 -6 -23 7 -47 66 -49 119 -65 212 -60 349 4 110 3 119 -14 119 -25 0 -23 31 6 116 33 97 72 171 90 171 19 0 20 -8 4 -27 -7 -8 -3 -6 9 4 13 10 20 23 17 27 -3 5 -1 9 4 9 5 0 22 19 39 43 104 143 277 264 455 317 87 26 128 26 128 0z"/>
 <path d="M1165 1360 c-22 -5 -51 -13 -65 -19 -22 -8 -22 -10 -5 -11 16 -1 15 -4 -10 -17 -16 -8 -52 -32 -78 -52 -27 -20 -52 -37 -58 -37 -5 -1 -14 -2 -19 -3 -14 -1 -70 -120 -70 -148 0 -28 20 -30 27 -3 3 11 9 20 14 20 5 0 5 7 2 17 -5 12 -3 14 7 8 8 -5 23 -10 34 -11 12 -1 52 -9 91 -18 38 -9 74 -16 80 -16 5 0 20 16 32 35 47 72 151 87 202 28 l24 -28 -61 -3 c-37 -2 -62 -7 -62 -14 0 -7 19 -9 61 -5 39 5 58 3 54 -3 -3 -6 -24 -10 -46 -10 -32 0 -39 -3 -39 -20 0 -24 31 -38 99 -46 25 -3 64 -12 86 -20 22 -8 57 -15 77 -17 87 -8 39 -15 -106 -16 l-156 -2 0 36 c0 24 -4 35 -15 35 -11 0 -15 -12 -15 -50 l0 -50 205 0 205 0 0 44 c0 55 -8 76 -27 76 -13 0 -15 9 -10 51 5 39 2 60 -13 89 -19 38 -73 90 -92 90 -6 0 -38 13 -72 30 -33 16 -86 34 -116 39 l-55 9 45 2 c42 2 43 3 15 10 -39 10 -120 10 -170 0z"/>
 <path d="M338 1323 c3 -20 11 -43 18 -51 8 -7 14 -19 14 -26 0 -8 15 -16 33 -20 17 -3 61 -12 97 -19 l65 -13 3 -49 c4 -67 17 -75 119 -75 69 0 83 -3 83 -16 0 -26 25 -9 28 19 l3 27 -100 0 -101 0 0 44 c0 30 -5 46 -15 50 -10 4 -15 20 -15 50 0 30 5 46 15 50 9 3 15 18 15 36 l0 30 -133 0 -133 0 4 -37z"/>
 <path d="M340 1095 c0 -50 4 -85 10 -85 6 0 10 -13 10 -30 0 -20 -5 -30 -15 -30 -13 0 -15 -26 -15 -170 l0 -170 248 -1 c286 0 295 -12 23 -28 -138 -8 -189 -15 -201 -26 -21 -19 -30 -19 -30 0 0 8 -7 15 -16 15 -13 0 -12 -5 5 -26 29 -37 29 -121 1 -152 -11 -12 -20 -23 -20 -25 0 -2 28 -26 63 -55 172 -139 407 -210 606 -183 163 22 330 95 445 195 l50 43 -22 28 c-28 36 -29 97 -2 150 12 22 14 31 5 21 -8 -11 -15 -15 -15 -8 0 8 -49 12 -162 15 -162 3 -214 9 -232 28 -6 5 -17 9 -25 9 -8 0 -29 11 -48 26 -18 14 -38 22 -43 19 -6 -4 -9 -3 -8 2 2 4 -1 9 -5 10 -4 1 -17 12 -28 25 -11 13 -17 17 -13 9 5 -10 3 -13 -9 -8 -12 4 -22 -6 -39 -41 l-23 -47 -3 108 -3 107 -108 0 -108 0 -7 31 c-3 17 -6 35 -6 40 0 5 45 9 100 9 l100 0 0 40 c0 28 -4 40 -14 40 -8 0 -16 10 -18 22 -3 20 -21 26 -198 66 -107 25 -198 50 -202 56 -4 6 -8 21 -8 34 0 12 -4 22 -10 22 -6 0 -10 -35 -10 -85z"/>
 <path d="M868 992 c-21 -4 -23 -42 -8 -110 26 -113 102 -205 210 -256 56 -26 79 -31 166 -34 123 -5 194 12 273 66 30 20 67 57 83 82 l28 44 -121 48 -122 47 -35 -31 c-32 -27 -40 -30 -84 -26 -36 4 -57 13 -80 34 -34 33 -58 81 -58 119 0 16 -6 25 -15 25 -9 0 -15 -9 -15 -25 0 -14 -2 -25 -4 -25 -2 0 -49 10 -103 23 -54 13 -106 21 -115 19z"/>
 </g>
<g id="layer121" fill="#ddbaa5" stroke="none">
 <path d="M801 1849 c-121 -15 -344 -100 -358 -135 -3 -7 -10 -11 -16 -7 -6 3 -7 1 -3 -5 4 -6 -5 -21 -21 -34 -15 -12 -71 -66 -124 -120 -52 -54 -100 -98 -106 -98 -12 0 -49 -54 -81 -116 -44 -86 -93 -284 -70 -284 14 0 9 -140 -5 -155 -20 -20 -3 -140 36 -255 179 -522 776 -769 1272 -525 307 150 496 440 512 783 6 120 5 123 -16 129 -16 4 -21 13 -21 37 0 17 -4 48 -9 68 -6 26 -5 38 3 41 16 5 -7 85 -49 172 -39 81 -137 211 -155 207 -7 -2 -38 19 -69 45 -72 62 -116 94 -168 123 -23 13 -40 26 -38 30 22 35 -273 113 -410 109 -22 -1 -69 -5 -104 -10z m19 -105 c0 -41 59 -94 105 -94 44 0 92 42 101 89 8 38 21 39 124 10 292 -81 536 -339 600 -634 21 -96 31 -125 43 -122 14 2 14 -172 0 -238 -7 -32 -13 -40 -32 -40 -20 0 -27 -9 -41 -51 -29 -85 -49 -117 -68 -108 -60 25 -124 9 -147 -37 -22 -42 -18 -83 11 -119 l27 -31 -24 -26 c-45 -49 -154 -125 -234 -163 -127 -62 -233 -83 -395 -78 -118 4 -146 8 -226 35 -50 17 -113 44 -140 58 -55 31 -180 123 -209 155 -18 20 -18 21 8 48 39 41 38 103 -3 144 -26 26 -36 29 -73 26 -23 -3 -49 -8 -58 -12 -21 -9 -61 79 -90 200 -17 73 -20 111 -17 212 4 112 2 122 -14 122 -12 0 -18 8 -18 23 0 31 41 149 73 214 24 46 30 51 53 47 16 -3 23 -1 19 6 -3 5 -1 10 5 10 6 0 14 8 17 18 16 40 142 166 223 221 110 76 267 139 348 140 28 1 32 -2 32 -25z"/>
 <path d="M1163 1359 c-48 -9 -88 -28 -63 -29 8 0 2 -8 -15 -17 -16 -8 -52 -32 -78 -52 -27 -20 -52 -37 -58 -37 -5 -1 -14 -2 -19 -3 -14 -1 -70 -120 -70 -148 0 -28 20 -30 27 -3 3 11 9 20 14 20 5 0 5 7 2 17 -5 12 -3 14 7 8 8 -5 23 -10 34 -11 12 -1 52 -9 91 -18 90 -21 87 -21 107 14 27 48 75 72 132 67 39 -3 55 -11 73 -32 13 -15 22 -29 20 -32 -2 -2 -30 -4 -61 -4 -32 -1 -56 -6 -56 -11 0 -7 21 -9 61 -5 39 5 58 3 54 -3 -3 -6 -24 -10 -46 -10 -32 0 -39 -3 -39 -20 0 -24 31 -38 99 -46 25 -3 64 -12 86 -20 22 -8 57 -15 77 -17 87 -8 39 -15 -106 -16 l-156 -2 0 36 c0 24 -4 35 -15 35 -11 0 -15 -12 -15 -50 l0 -50 203 0 204 0 1 42 c2 54 -5 78 -25 78 -13 0 -15 9 -10 51 5 39 2 60 -13 89 -19 38 -73 90 -92 90 -6 0 -38 13 -72 30 -33 16 -86 34 -116 39 -35 5 -44 9 -25 10 23 1 27 3 15 11 -18 11 -98 11 -157 -1z"/>
 <path d="M340 1320 c0 -22 4 -40 10 -40 5 0 12 -11 16 -24 4 -17 15 -26 37 -30 18 -3 61 -12 97 -19 l65 -13 3 -49 c4 -67 17 -75 119 -75 69 0 83 -3 83 -16 0 -26 25 -9 28 19 l3 27 -100 0 -101 0 0 44 c0 30 -5 46 -15 50 -10 4 -15 20 -15 50 0 30 5 46 15 50 9 3 15 18 15 36 l0 30 -130 0 -130 0 0 -40z"/>
 <path d="M340 1095 c0 -50 4 -85 10 -85 6 0 10 -13 10 -30 0 -20 -5 -30 -15 -30 -13 0 -15 -26 -15 -170 l0 -170 250 0 250 0 0 105 0 105 -109 0 -108 0 -7 31 c-3 17 -6 35 -6 40 0 5 45 9 100 9 l100 0 0 40 c0 28 -4 40 -14 40 -8 0 -16 10 -18 22 -3 20 -21 26 -198 66 -107 25 -198 50 -202 56 -4 6 -8 21 -8 34 0 12 -4 22 -10 22 -6 0 -10 -35 -10 -85z"/>
 <path d="M868 992 c-23 -5 -24 -50 -2 -123 35 -119 97 -193 204 -243 56 -26 79 -31 164 -34 72 -3 115 0 163 13 78 21 169 85 200 141 l22 40 -122 46 -122 46 -34 -30 c-30 -27 -40 -30 -83 -26 -36 4 -57 13 -80 34 -34 33 -58 81 -58 119 0 16 -6 25 -15 25 -9 0 -15 -9 -15 -25 0 -14 -2 -25 -4 -25 -2 0 -49 10 -103 23 -54 13 -106 21 -115 19z"/>
 <path d="M880 670 c0 -11 -4 -20 -9 -20 -5 0 -14 -13 -21 -30 -7 -16 -18 -30 -25 -30 -8 0 -15 -4 -17 -9 -1 -5 -73 -14 -158 -22 -100 -8 -160 -18 -169 -26 -9 -10 -11 -27 -6 -60 6 -43 5 -45 -14 -40 -12 3 -22 -1 -25 -9 -3 -8 -9 -14 -13 -13 -29 5 -51 -4 -61 -25 -9 -21 -6 -28 26 -59 20 -20 74 -58 118 -85 198 -119 433 -148 651 -81 81 25 206 88 250 127 17 15 46 40 65 54 l33 26 -28 30 c-18 19 -38 29 -58 30 -40 1 -69 28 -69 62 0 24 -6 30 -47 43 -27 9 -78 17 -115 19 -38 1 -68 6 -68 10 0 5 -6 8 -13 8 -30 0 -153 73 -149 89 1 6 -5 11 -13 11 -8 0 -15 5 -15 10 0 6 -11 10 -25 10 -18 0 -25 -5 -25 -20z"/>
 </g>
<g id="layer122" fill="#bec0c3" stroke="none">
 <path d="M801 1849 c-121 -15 -344 -100 -358 -135 -3 -7 -10 -11 -16 -7 -6 3 -7 1 -3 -5 4 -6 -5 -21 -21 -34 -15 -12 -71 -66 -124 -120 -52 -54 -100 -98 -106 -98 -12 0 -49 -54 -81 -116 -44 -86 -93 -284 -70 -284 14 0 9 -140 -5 -155 -20 -20 -3 -140 36 -255 179 -522 776 -769 1272 -525 307 150 496 440 512 783 6 120 5 123 -16 129 -16 4 -21 13 -21 37 0 17 -4 48 -9 68 -6 26 -5 38 3 41 16 5 -7 85 -49 172 -39 81 -137 211 -155 207 -7 -2 -38 19 -69 45 -72 62 -116 94 -168 123 -23 13 -40 26 -38 30 22 35 -273 113 -410 109 -22 -1 -69 -5 -104 -10z m19 -105 c0 -41 59 -94 105 -94 44 0 92 42 101 89 8 38 21 39 124 10 292 -81 536 -339 600 -634 21 -96 31 -125 43 -122 14 2 14 -172 0 -238 -7 -32 -13 -40 -32 -40 -20 0 -27 -9 -41 -51 -29 -85 -49 -117 -68 -108 -60 25 -124 9 -147 -37 -22 -42 -18 -83 11 -119 l27 -31 -24 -26 c-45 -49 -154 -125 -234 -163 -127 -62 -233 -83 -395 -78 -118 4 -146 8 -226 35 -50 17 -113 44 -140 58 -55 31 -180 123 -209 155 -18 20 -18 21 8 48 39 41 38 103 -3 144 -26 26 -36 29 -73 26 -23 -3 -49 -8 -58 -12 -21 -9 -61 79 -90 200 -17 73 -20 111 -17 212 4 112 2 122 -14 122 -12 0 -18 8 -18 23 0 31 41 149 73 214 24 46 30 51 53 47 16 -3 23 -1 19 6 -3 5 -1 10 5 10 6 0 14 8 17 18 16 40 142 166 223 221 110 76 267 139 348 140 28 1 32 -2 32 -25z"/>
 <path d="M1163 1359 c-48 -9 -88 -28 -63 -29 8 0 2 -8 -15 -17 -16 -8 -52 -32 -78 -52 -27 -20 -52 -37 -58 -37 -5 -1 -14 -2 -19 -3 -14 -1 -70 -120 -70 -148 0 -28 20 -30 27 -3 3 11 9 20 14 20 5 0 5 7 2 17 -5 12 -3 14 7 8 8 -5 23 -10 34 -11 12 -1 52 -9 91 -18 90 -21 87 -21 107 14 27 48 75 72 132 67 39 -3 55 -11 73 -32 13 -15 22 -29 20 -32 -2 -2 -30 -4 -61 -4 -32 -1 -56 -6 -56 -11 0 -7 21 -9 61 -5 39 5 58 3 54 -3 -3 -6 -24 -10 -46 -10 -32 0 -39 -3 -39 -20 0 -24 31 -38 99 -46 25 -3 64 -12 86 -20 22 -8 57 -15 77 -17 87 -8 39 -15 -106 -16 l-156 -2 0 36 c0 24 -4 35 -15 35 -11 0 -15 -12 -15 -50 l0 -50 203 0 204 0 1 42 c2 54 -5 78 -25 78 -13 0 -15 9 -10 51 5 39 2 60 -13 89 -19 38 -73 90 -92 90 -6 0 -38 13 -72 30 -33 16 -86 34 -116 39 -35 5 -44 9 -25 10 23 1 27 3 15 11 -18 11 -98 11 -157 -1z"/>
 <path d="M340 1320 c0 -22 4 -40 10 -40 5 0 12 -11 16 -24 4 -17 15 -26 37 -30 18 -3 61 -12 97 -19 l65 -13 3 -49 c4 -67 17 -75 119 -75 69 0 83 -3 83 -16 0 -26 25 -9 28 19 l3 27 -100 0 -101 0 0 44 c0 30 -5 46 -15 50 -10 4 -15 20 -15 50 0 30 5 46 15 50 9 3 15 18 15 36 l0 30 -130 0 -130 0 0 -40z"/>
 <path d="M340 1095 c0 -50 4 -85 10 -85 6 0 10 -13 10 -30 0 -20 -5 -30 -15 -30 -13 0 -15 -26 -15 -170 l0 -170 250 0 250 0 0 105 0 105 -109 0 -108 0 -7 31 c-3 17 -6 35 -6 40 0 5 45 9 100 9 l100 0 0 40 c0 28 -4 40 -14 40 -8 0 -16 10 -18 22 -3 20 -21 26 -198 66 -107 25 -198 50 -202 56 -4 6 -8 21 -8 34 0 12 -4 22 -10 22 -6 0 -10 -35 -10 -85z"/>
 <path d="M868 992 c-23 -5 -24 -50 -2 -123 35 -119 97 -193 204 -243 56 -26 79 -31 164 -34 72 -3 115 0 163 13 78 21 169 85 200 141 l22 40 -122 46 -122 46 -34 -30 c-30 -27 -40 -30 -83 -26 -36 4 -57 13 -80 34 -34 33 -58 81 -58 119 0 16 -6 25 -15 25 -9 0 -15 -9 -15 -25 0 -14 -2 -25 -4 -25 -2 0 -49 10 -103 23 -54 13 -106 21 -115 19z"/>
 <path d="M915 580 c-3 -5 -15 -10 -25 -10 -10 0 -20 -5 -22 -12 -4 -11 -18 -16 -74 -22 -17 -2 -53 -7 -80 -10 -27 -3 -68 -8 -92 -11 -54 -6 -79 -19 -87 -45 -5 -15 -13 -19 -31 -16 -17 3 -24 0 -24 -11 0 -10 -6 -14 -19 -10 -12 3 -22 -1 -25 -9 -3 -8 -9 -14 -13 -13 -29 5 -51 -4 -61 -25 -9 -21 -6 -28 26 -59 20 -20 74 -58 118 -85 198 -119 433 -148 651 -81 83 26 206 88 253 130 19 16 48 41 64 55 l29 25 -27 28 c-17 18 -38 28 -57 29 -17 0 -38 7 -48 15 -9 8 -26 13 -37 11 -15 -2 -27 5 -38 21 -9 14 -20 24 -24 23 -4 -1 -27 2 -52 7 -25 4 -52 9 -60 10 -56 7 -210 56 -210 67 0 11 -28 10 -35 -2z"/>
 </g>
<g id="layer123" fill="#ecc6b5" stroke="none">
 <path d="M828 1849 c-42 -4 -96 -13 -120 -19 -69 -18 -178 -61 -178 -71 0 -4 8 -6 18 -3 9 3 -1 -5 -23 -17 -66 -37 -187 -129 -169 -129 4 0 -1 -9 -10 -19 -12 -13 -14 -21 -6 -26 16 -10 41 15 35 36 -3 9 0 21 6 25 7 4 9 3 5 -4 -15 -25 14 -19 56 12 25 17 64 40 87 50 22 11 38 23 34 29 -3 6 -2 7 4 4 5 -3 39 5 76 19 37 13 92 27 122 30 55 7 55 7 55 -21 0 -18 12 -39 35 -62 32 -32 40 -35 76 -30 50 7 76 29 91 79 13 44 23 46 112 23 177 -46 358 -167 456 -305 25 -35 53 -71 63 -82 9 -10 17 -20 17 -23 0 -3 0 -10 0 -17 0 -9 3 -9 12 0 7 7 16 12 22 12 5 0 6 -3 3 -7 -4 -3 1 -11 10 -18 9 -7 17 -19 19 -28 3 -25 47 -82 52 -68 8 24 -61 171 -120 254 -11 15 -27 27 -37 27 -9 0 -33 16 -52 36 -71 75 -187 161 -278 207 -52 26 -103 47 -113 47 -11 0 -15 5 -12 14 12 31 -209 59 -348 45z"/>
 <path d="M112 1366 c-36 -69 -55 -114 -73 -185 -22 -88 -23 -97 -6 -79 7 7 21 45 32 83 10 39 35 102 54 141 24 47 32 71 23 71 -7 0 -21 -14 -30 -31z"/>
 <path d="M1172 1363 c-18 -2 -30 -8 -27 -13 4 -7 84 5 94 16 5 4 -12 4 -67 -3z"/>
 <path d="M340 1330 c0 -32 14 -40 24 -15 4 12 24 15 91 15 47 0 85 -3 85 -8 0 -4 14 -8 30 -8 25 -1 30 2 30 22 l0 24 -130 0 -130 0 0 -30z"/>
 <path d="M1133 1326 c-54 -18 -123 -58 -147 -87 -18 -22 -18 -22 3 -16 11 3 21 1 21 -3 0 -5 36 -16 80 -26 l81 -17 -24 -26 c-28 -30 -41 -61 -26 -61 6 0 20 11 31 25 49 62 150 73 195 20 13 -14 23 -23 23 -19 0 3 8 0 17 -7 15 -12 16 -12 10 4 -7 18 3 23 19 9 5 -5 42 -15 82 -22 53 -10 72 -17 72 -29 1 -14 2 -13 11 2 6 9 14 15 20 12 5 -4 9 5 9 19 0 14 4 26 9 26 27 0 -40 109 -69 113 -8 2 -26 10 -40 19 -75 50 -143 71 -239 75 -63 2 -110 -2 -138 -11z"/>
 <path d="M1686 1312 c-4 -7 -2 -12 4 -12 6 0 8 -5 4 -12 -6 -10 -5 -10 8 -1 8 7 19 9 23 5 5 -4 5 -1 1 6 -4 7 -11 10 -16 7 -4 -3 -10 0 -12 7 -3 9 -6 9 -12 0z"/>
 <path d="M885 1148 c-14 -29 -25 -59 -25 -66 0 -30 24 -3 51 56 22 49 25 62 13 62 -8 0 -26 -24 -39 -52z"/>
 <path d="M581 1167 c-9 -11 -11 -28 -7 -52 6 -29 12 -35 39 -40 18 -3 60 -3 95 -1 34 2 62 1 62 -3 0 -4 7 -8 15 -8 8 0 15 9 15 19 0 16 -10 18 -99 18 l-100 0 -3 42 c-3 36 -5 39 -17 25z"/>
 <path d="M340 1095 c0 -37 4 -65 10 -65 17 0 12 -77 -5 -84 -12 -4 -15 -33 -15 -171 l0 -165 250 0 250 0 0 105 0 104 -112 3 -113 3 -2 38 -3 37 100 0 100 0 0 40 c0 29 -4 40 -15 40 -8 0 -15 9 -15 19 0 23 11 20 -215 72 -99 22 -183 43 -187 46 -5 2 -8 13 -8 24 0 10 -4 19 -10 19 -6 0 -10 -28 -10 -65z"/>
 <path d="M36 1029 c-3 -34 -6 -80 -6 -101 0 -24 -4 -37 -10 -33 -17 10 -11 -84 10 -174 102 -425 511 -726 946 -698 402 27 734 300 835 689 26 98 33 298 12 305 -10 4 -13 -20 -14 -94 0 -54 -6 -123 -12 -153 -10 -47 -15 -55 -34 -53 -18 2 -26 -8 -48 -66 -35 -93 -46 -107 -73 -92 -100 53 -198 -72 -125 -160 l27 -32 -51 -47 c-242 -222 -590 -283 -901 -157 -69 28 -176 97 -247 160 l-50 45 28 29 c36 39 38 100 3 140 -19 22 -32 27 -67 28 -24 0 -53 -3 -65 -8 -18 -6 -24 0 -47 51 -49 108 -69 222 -65 359 3 120 2 123 -18 123 -19 0 -22 -8 -28 -61z"/>
 <path d="M1624 995 l7 -45 -175 0 -175 0 -3 27 c-6 48 -28 39 -28 -11 l0 -46 204 0 204 0 -2 38 c-2 20 -3 47 -4 60 -1 13 -9 22 -18 22 -14 0 -15 -7 -10 -45z"/>
 <path d="M1090 975 c0 -30 5 -30 -100 -5 -49 12 -96 18 -113 14 -29 -6 -29 -7 -23 -56 18 -133 96 -242 214 -300 64 -32 71 -33 187 -33 103 0 128 4 179 24 62 25 138 88 168 138 l17 29 -122 46 -122 46 -34 -30 c-30 -27 -40 -30 -83 -26 -36 4 -57 13 -80 34 -34 33 -58 81 -58 119 0 16 -6 25 -15 25 -9 0 -15 -9 -15 -25z"/>
 <path d="M915 580 c-3 -5 -15 -10 -25 -10 -10 0 -20 -5 -22 -12 -4 -11 -18 -16 -74 -22 -17 -2 -53 -7 -80 -10 -27 -3 -68 -8 -92 -11 -54 -6 -79 -19 -87 -45 -5 -15 -13 -19 -31 -16 -17 3 -24 0 -24 -11 0 -10 -6 -14 -19 -10 -12 3 -22 -1 -25 -10 -3 -8 -10 -12 -14 -9 -5 3 -7 -6 -4 -19 2 -15 0 -25 -8 -25 -7 0 -9 -8 -5 -22 6 -17 4 -20 -11 -14 -17 7 -17 6 1 -14 10 -11 23 -20 29 -19 6 0 6 3 -1 6 -14 5 -18 23 -5 23 4 0 27 -19 52 -42 25 -23 37 -35 27 -28 -9 7 -20 11 -23 8 -3 -3 14 -17 38 -30 198 -115 430 -143 645 -77 90 28 207 90 263 139 25 22 50 40 55 40 10 0 -15 20 -26 20 -4 0 -6 -8 -5 -17 1 -13 -5 -17 -19 -15 -31 6 -49 42 -20 42 8 0 16 5 16 10 5 37 2 45 -16 48 -11 2 -27 10 -35 17 -8 7 -25 11 -36 9 -15 -2 -27 5 -38 21 -9 14 -20 24 -24 23 -4 -1 -27 2 -52 7 -25 4 -52 9 -60 10 -56 7 -210 56 -210 67 0 11 -28 10 -35 -2z m-445 -221 c0 -4 -9 -7 -20 -6 -11 1 -20 7 -20 13 0 7 8 10 20 7 11 -3 20 -9 20 -14z"/>
 </g>
<g id="layer124" fill="#e0cbc5" stroke="none">
 <path d="M828 1849 c-42 -4 -96 -13 -120 -19 -69 -18 -178 -61 -178 -71 0 -4 8 -6 18 -3 9 3 -1 -5 -23 -17 -66 -37 -187 -129 -169 -129 4 0 -1 -9 -10 -19 -12 -13 -14 -21 -6 -26 16 -10 41 15 35 36 -3 9 0 21 6 25 7 4 9 3 5 -4 -15 -25 14 -19 56 12 25 17 64 40 87 50 22 11 38 23 34 29 -3 6 -2 7 4 4 5 -3 39 5 76 19 37 13 92 27 122 30 55 7 55 7 55 -21 0 -18 12 -39 35 -62 32 -32 40 -35 76 -30 50 7 76 29 91 79 13 44 23 46 112 23 177 -46 358 -167 456 -305 25 -35 53 -71 63 -82 9 -10 17 -20 17 -23 0 -3 0 -10 0 -17 0 -9 3 -9 12 0 7 7 16 12 22 12 5 0 6 -3 3 -7 -4 -3 1 -11 10 -18 9 -7 17 -19 19 -28 3 -25 47 -82 52 -68 8 24 -61 171 -120 254 -11 15 -27 27 -37 27 -9 0 -33 16 -52 36 -71 75 -187 161 -278 207 -52 26 -103 47 -113 47 -11 0 -15 5 -12 14 12 31 -209 59 -348 45z"/>
 <path d="M112 1366 c-36 -69 -55 -114 -73 -185 -22 -88 -23 -97 -6 -79 7 7 21 45 32 83 10 39 35 102 54 141 24 47 32 71 23 71 -7 0 -21 -14 -30 -31z"/>
 <path d="M1172 1363 c-18 -2 -30 -8 -27 -13 4 -7 84 5 94 16 5 4 -12 4 -67 -3z"/>
 <path d="M340 1330 c0 -32 14 -40 24 -15 4 12 24 15 91 15 47 0 85 -3 85 -8 0 -4 14 -8 30 -8 25 -1 30 2 30 22 l0 24 -130 0 -130 0 0 -30z"/>
 <path d="M1133 1326 c-54 -18 -123 -58 -147 -87 -18 -22 -18 -22 3 -16 11 3 21 1 21 -3 0 -5 36 -16 80 -26 l81 -17 -24 -26 c-28 -30 -41 -61 -26 -61 6 0 20 11 31 25 49 62 150 73 195 20 13 -14 23 -23 23 -19 0 3 8 0 17 -7 15 -12 16 -12 10 4 -7 18 3 23 19 9 5 -5 42 -15 82 -22 53 -10 72 -17 72 -29 1 -14 2 -13 11 2 6 9 14 15 20 12 5 -4 9 5 9 19 0 14 4 26 9 26 27 0 -40 109 -69 113 -8 2 -26 10 -40 19 -75 50 -143 71 -239 75 -63 2 -110 -2 -138 -11z"/>
 <path d="M1686 1312 c-4 -7 -2 -12 4 -12 6 0 8 -5 4 -12 -6 -10 -5 -10 8 -1 8 7 19 9 23 5 5 -4 5 -1 1 6 -4 7 -11 10 -16 7 -4 -3 -10 0 -12 7 -3 9 -6 9 -12 0z"/>
 <path d="M885 1148 c-14 -29 -25 -59 -25 -66 0 -30 24 -3 51 56 22 49 25 62 13 62 -8 0 -26 -24 -39 -52z"/>
 <path d="M581 1167 c-9 -11 -11 -28 -7 -52 6 -29 12 -35 39 -40 18 -3 60 -3 95 -1 34 2 62 1 62 -3 0 -4 7 -8 15 -8 8 0 15 9 15 19 0 16 -10 18 -99 18 l-100 0 -3 42 c-3 36 -5 39 -17 25z"/>
 <path d="M340 1095 c0 -37 4 -65 10 -65 17 0 12 -77 -5 -84 -12 -4 -15 -33 -15 -171 l0 -165 250 0 250 0 0 105 0 104 -112 3 -113 3 -2 38 -3 37 100 0 100 0 0 40 c0 29 -4 40 -15 40 -8 0 -15 9 -15 19 0 23 11 20 -215 72 -99 22 -183 43 -187 46 -5 2 -8 13 -8 24 0 10 -4 19 -10 19 -6 0 -10 -28 -10 -65z"/>
 <path d="M36 1029 c-3 -34 -6 -80 -6 -101 0 -24 -4 -37 -10 -33 -17 10 -11 -84 10 -174 102 -425 511 -726 946 -698 402 27 734 300 835 689 26 98 33 298 12 305 -10 4 -13 -20 -14 -94 0 -54 -6 -123 -12 -153 -10 -47 -15 -55 -34 -53 -18 2 -26 -8 -48 -66 -35 -93 -46 -107 -73 -92 -100 53 -198 -72 -125 -160 l27 -32 -51 -47 c-242 -222 -590 -283 -901 -157 -69 28 -176 97 -247 160 l-50 45 28 29 c36 39 38 100 3 140 -19 22 -32 27 -67 28 -24 0 -53 -3 -65 -8 -18 -6 -24 0 -47 51 -49 108 -69 222 -65 359 3 120 2 123 -18 123 -19 0 -22 -8 -28 -61z"/>
 <path d="M1624 995 l7 -45 -175 0 -175 0 -3 27 c-6 48 -28 39 -28 -11 l0 -46 204 0 204 0 -2 38 c-2 20 -3 47 -4 60 -1 13 -9 22 -18 22 -14 0 -15 -7 -10 -45z"/>
 <path d="M1090 975 c0 -30 5 -30 -100 -5 -49 12 -96 18 -113 14 -29 -6 -29 -7 -23 -56 18 -133 96 -242 214 -300 64 -32 71 -33 187 -33 103 0 128 4 179 24 62 25 138 88 168 138 l17 29 -122 46 -122 46 -34 -30 c-30 -27 -40 -30 -83 -26 -36 4 -57 13 -80 34 -34 33 -58 81 -58 119 0 16 -6 25 -15 25 -9 0 -15 -9 -15 -25z"/>
 <path d="M480 443 c0 -10 -6 -14 -19 -10 -12 3 -22 -1 -25 -10 -3 -8 -10 -12 -14 -9 -5 3 -7 -6 -4 -19 2 -15 0 -25 -8 -25 -7 0 -9 -8 -5 -22 6 -17 4 -20 -11 -14 -17 7 -17 6 1 -14 10 -11 23 -20 29 -19 6 0 6 3 -1 6 -14 5 -18 23 -5 23 4 0 27 -19 52 -42 25 -23 37 -35 27 -28 -9 7 -20 11 -23 8 -3 -3 14 -17 38 -30 198 -115 430 -143 645 -77 90 28 207 90 263 139 25 22 50 40 55 40 10 0 -15 20 -26 20 -4 0 -6 -8 -5 -17 1 -13 -5 -17 -19 -15 -31 6 -49 42 -20 42 8 0 16 5 16 10 5 37 2 45 -16 48 -11 2 -28 11 -37 19 -16 14 -18 14 -24 -1 -3 -9 -13 -16 -21 -16 -8 0 -11 -5 -8 -10 3 -6 1 -10 -5 -10 -6 0 -18 -7 -26 -15 -11 -10 -11 -15 -3 -15 6 0 0 -9 -15 -21 -15 -11 -33 -18 -41 -15 -8 3 -15 2 -15 -3 0 -5 -21 -7 -47 -5 -27 2 -111 6 -188 10 -88 4 -143 10 -147 17 -5 9 -10 9 -20 -1 -6 -6 -25 -12 -40 -12 -16 0 -38 -6 -49 -12 -17 -10 -23 -10 -26 0 -3 6 -13 12 -23 12 -10 0 -21 6 -24 13 -5 10 -7 10 -12 0 -7 -15 -44 -17 -44 -3 0 6 -5 10 -11 10 -17 0 -49 40 -49 62 0 10 -3 18 -7 19 -5 0 -16 2 -25 4 -11 2 -18 -3 -18 -12z m-10 -84 c0 -4 -9 -7 -20 -6 -11 1 -20 7 -20 13 0 7 8 10 20 7 11 -3 20 -9 20 -14z"/>
 </g>
<g id="layer125" fill="#d9d9db" stroke="none">
 <path d="M828 1849 c-42 -4 -96 -13 -120 -19 -69 -18 -178 -61 -178 -71 0 -4 8 -6 18 -3 9 3 -1 -5 -23 -17 -66 -37 -187 -129 -169 -129 4 0 -1 -10 -12 -22 -19 -23 -19 -23 2 -5 11 9 24 14 28 10 4 -4 4 0 1 9 -4 9 -1 19 5 23 6 3 9 2 8 -3 -2 -6 2 -9 7 -8 6 0 10 9 9 18 0 13 3 15 12 7 9 -8 23 -4 48 14 20 13 33 27 29 30 -3 4 5 7 19 7 14 0 31 6 38 14 6 8 18 12 26 9 8 -3 14 0 14 6 0 6 11 11 24 11 14 0 28 5 31 10 3 6 16 10 29 10 12 0 27 5 33 11 5 5 34 9 64 7 51 -3 54 -4 60 -35 6 -33 30 -63 48 -63 6 0 11 -4 11 -10 0 -14 52 -12 72 4 10 7 15 16 11 19 -3 4 3 7 15 7 15 0 22 6 22 18 0 10 5 23 12 30 9 9 9 12 0 12 -7 0 -12 5 -12 11 0 8 18 10 58 5 92 -9 132 -18 132 -27 0 -5 11 -9 25 -9 14 0 25 -4 25 -10 0 -5 11 -10 25 -10 14 0 25 -4 25 -10 0 -5 7 -10 15 -10 9 0 25 -9 37 -20 12 -11 28 -20 35 -20 7 0 13 -4 13 -10 0 -5 7 -10 15 -10 23 0 143 -126 195 -203 14 -20 28 -37 33 -37 4 0 7 -5 7 -11 0 -7 8 -18 18 -26 9 -8 11 -11 3 -7 -9 5 -12 3 -7 -5 5 -7 16 -9 29 -5 20 6 20 5 8 -10 -8 -9 -11 -20 -7 -23 10 -11 37 -12 30 -2 -3 5 -10 7 -15 4 -5 -4 -9 -1 -9 4 0 27 32 3 36 -26 4 -22 48 -77 52 -64 8 24 -61 171 -120 254 -11 15 -27 27 -37 27 -9 0 -33 16 -52 36 -71 75 -187 161 -278 207 -52 26 -103 47 -113 47 -11 0 -15 5 -12 14 12 31 -209 59 -348 45z"/>
 <path d="M112 1366 c-36 -69 -55 -114 -73 -185 -22 -88 -23 -97 -6 -79 7 7 21 45 32 83 10 39 35 102 54 141 24 47 32 71 23 71 -7 0 -21 -14 -30 -31z"/>
 <path d="M340 1330 c0 -32 14 -40 24 -15 4 12 24 15 91 15 47 0 85 -4 85 -8 0 -5 12 -8 28 -7 15 0 26 4 25 8 -1 4 -3 13 -5 19 -3 8 -45 13 -126 15 l-122 3 0 -30z"/>
 <path d="M1133 1326 c-54 -18 -123 -58 -147 -87 -18 -22 -18 -22 3 -16 11 3 21 1 21 -3 0 -5 36 -16 80 -26 l81 -17 -24 -26 c-24 -26 -42 -61 -31 -61 3 0 26 18 51 40 40 35 52 40 95 40 41 0 54 -5 79 -29 16 -16 29 -27 29 -24 0 3 8 -1 17 -8 15 -12 16 -12 10 4 -7 18 3 23 19 9 5 -5 42 -15 82 -22 53 -10 72 -17 72 -29 1 -14 2 -13 11 2 6 9 14 15 20 12 5 -4 9 5 9 19 0 14 4 26 9 26 6 0 6 12 -1 30 -11 34 -65 93 -78 85 -4 -3 -13 1 -19 9 -6 7 -43 28 -83 46 -62 29 -84 34 -167 37 -63 2 -110 -2 -138 -11z"/>
 <path d="M891 1158 c-29 -67 -35 -91 -21 -86 7 2 25 32 41 66 22 49 25 62 13 62 -8 0 -23 -19 -33 -42z"/>
 <path d="M581 1167 c-9 -11 -11 -28 -7 -52 6 -29 12 -35 39 -40 18 -3 60 -3 95 -1 41 3 62 0 62 -7 0 -8 3 -8 11 0 23 23 -3 33 -91 33 l-89 0 -3 42 c-3 36 -5 39 -17 25z"/>
 <path d="M340 1095 c0 -37 4 -65 10 -65 17 0 12 -77 -5 -84 -12 -4 -15 -33 -15 -171 l0 -165 250 0 250 0 0 105 0 104 -112 3 -113 3 -3 38 -3 37 100 0 101 0 0 35 c0 22 -6 38 -15 41 -8 4 -15 14 -15 24 0 22 10 19 -215 71 -99 22 -183 43 -187 46 -5 2 -8 13 -8 24 0 10 -4 19 -10 19 -6 0 -10 -28 -10 -65z"/>
 <path d="M36 1029 c-3 -34 -6 -80 -6 -101 0 -24 -4 -37 -10 -33 -17 10 -11 -84 10 -174 102 -425 511 -726 946 -698 402 27 734 300 835 689 26 98 33 298 12 305 -10 4 -13 -20 -14 -94 0 -54 -6 -123 -12 -153 -10 -45 -15 -55 -32 -53 -23 2 -35 -13 -35 -44 0 -13 -4 -23 -10 -23 -5 0 -10 -7 -10 -15 0 -20 -42 -105 -52 -105 -4 0 -8 6 -8 14 0 32 -83 36 -102 6 -7 -11 -18 -20 -25 -20 -17 0 -33 -33 -33 -66 0 -15 12 -43 26 -61 l26 -35 -33 -35 c-79 -82 -218 -163 -349 -205 -67 -20 -94 -23 -245 -23 -166 0 -172 1 -260 33 -108 39 -222 106 -301 177 l-58 52 27 32 c41 49 38 97 -10 139 -40 34 -66 39 -108 20 -24 -11 -28 -10 -38 7 -55 93 -95 266 -92 398 1 51 5 100 9 110 7 14 3 17 -17 17 -22 0 -25 -5 -31 -61z"/>
 <path d="M1624 995 l7 -45 -175 0 -175 0 -3 27 c-6 48 -28 39 -28 -11 l0 -46 199 0 199 0 5 27 c8 42 -3 93 -20 93 -12 0 -14 -9 -9 -45z"/>
 <path d="M1090 976 c0 -31 5 -31 -100 -6 -49 12 -96 18 -113 14 -29 -6 -29 -7 -23 -56 22 -164 136 -290 299 -329 69 -17 210 -7 279 20 60 23 142 89 170 138 l17 29 -122 46 -122 46 -24 -24 c-72 -73 -197 -22 -226 92 -13 53 -35 71 -35 30z"/>
 <path d="M481 271 c-10 -6 -9 -10 3 -14 8 -3 18 -2 21 3 8 13 -9 20 -24 11z"/>
 <path d="M530 253 c0 -16 24 -43 38 -43 10 0 22 -4 28 -9 11 -11 92 -39 164 -57 68 -17 250 -19 250 -3 0 7 10 9 26 6 19 -3 24 -1 19 11 -5 13 3 14 54 9 51 -6 59 -4 55 8 -8 19 -129 21 -138 3 -5 -10 -7 -10 -12 0 -7 15 -164 17 -164 2 0 -5 -11 -10 -25 -10 -14 0 -25 5 -25 10 0 6 -25 10 -55 10 -30 0 -55 5 -55 10 0 6 -13 10 -30 10 -16 0 -30 5 -30 11 0 6 -9 9 -20 6 -12 -3 -20 0 -20 8 0 7 -13 15 -30 17 -16 3 -30 3 -30 1z m260 -88 c0 -8 -7 -15 -15 -15 -8 0 -15 5 -15 11 0 5 5 7 10 4 6 -3 10 -1 10 4 0 6 2 11 5 11 3 0 5 -7 5 -15z"/>
 <path d="M1219 229 c-7 -10 -21 -19 -31 -19 -10 0 -18 -4 -18 -10 0 -5 11 -10 25 -10 14 0 25 5 25 10 0 6 15 10 34 10 38 0 53 12 33 27 -21 16 -53 12 -68 -8z"/>
 </g>
<g id="layer126" fill="#f5f5f5" stroke="none">
 <path d="M1708 1374 c12 -17 20 -33 18 -35 -2 -2 5 -13 15 -23 19 -19 19 -19 9 11 -6 17 -23 41 -37 54 l-27 24 22 -31z"/>
 <path d="M61 1249 c-6 -17 -8 -36 -4 -42 5 -9 30 40 32 66 2 20 -18 3 -28 -24z"/>
 <path d="M1575 1210 c-3 -5 1 -20 9 -32 l16 -22 0 22 c0 15 -4 21 -12 16 -8 -5 -9 -2 -5 9 7 19 2 23 -8 7z"/>
 <path d="M1197 1173 c-3 -5 23 -8 56 -8 34 0 70 -4 80 -9 11 -5 17 -4 17 4 0 6 -4 8 -10 5 -5 -3 -10 -1 -10 4 0 12 -126 15 -133 4z"/>
 <path d="M1165 1162 c-5 -4 -17 -16 -25 -26 -15 -19 -14 -19 13 -2 15 10 27 22 27 27 0 11 -2 11 -15 1z"/>
 <path d="M887 1153 c-11 -11 -8 -33 5 -33 6 0 8 3 5 7 -4 3 -2 12 4 20 11 13 -2 19 -14 6z"/>
 <path d="M580 1117 c0 -14 4 -28 9 -31 5 -4 8 5 6 19 -3 35 -15 44 -15 12z"/>
 <path d="M347 1100 c-3 -11 -1 -23 4 -26 5 -3 9 6 9 20 0 31 -6 34 -13 6z"/>
 <path d="M1630 990 l0 -40 -180 0 -180 0 0 25 c0 14 -4 25 -10 25 -5 0 -10 -18 -10 -40 l0 -40 199 0 199 0 4 24 c6 32 -2 86 -13 86 -5 0 -9 -18 -9 -40z"/>
 <path d="M1096 958 c3 -18 15 -53 27 -78 46 -93 185 -120 246 -47 10 13 23 10 94 -17 45 -18 90 -35 101 -39 18 -7 18 -8 1 -27 -16 -18 -27 -19 -124 -15 -108 6 -182 14 -376 41 -128 19 -159 29 -152 48 3 8 1 16 -4 18 -5 2 -15 31 -22 66 -7 39 -16 62 -25 62 -23 0 -4 -88 36 -170 43 -87 107 -145 199 -181 48 -18 77 -23 163 -22 117 0 184 19 259 73 38 28 99 105 90 114 -2 3 -56 25 -119 49 -87 34 -117 42 -125 33 -40 -48 -117 -60 -172 -26 -36 21 -73 85 -73 125 0 15 -6 25 -14 25 -10 0 -13 -9 -10 -32z"/>
 <path d="M1813 969 c12 -44 -14 -215 -47 -311 -33 -97 -101 -222 -143 -264 -13 -13 -23 -27 -23 -31 0 -5 -9 -14 -21 -21 -12 -8 -18 -9 -15 -3 4 5 1 13 -6 17 -7 4 -10 4 -6 -1 11 -12 -11 -45 -30 -45 -15 0 -15 2 -2 10 8 5 10 10 4 10 -6 0 -22 -10 -36 -23 -14 -12 -34 -27 -44 -34 -11 -6 -18 -16 -16 -23 1 -6 -6 -10 -15 -8 -11 2 -17 -2 -15 -10 1 -8 -1 -11 -6 -8 -8 5 -139 -59 -152 -73 -3 -3 -12 -7 -20 -8 -8 0 -51 -11 -94 -22 -109 -29 -300 -29 -412 -1 -138 35 -300 126 -388 219 l-29 30 27 31 c27 33 36 93 14 106 -7 4 -8 3 -4 -4 4 -7 2 -12 -3 -12 -6 0 -11 5 -11 11 0 5 -5 7 -12 3 -8 -5 -9 -1 -4 12 6 15 5 17 -5 6 -26 -25 -56 -12 -50 22 1 5 -6 3 -15 -5 -10 -8 -15 -9 -11 -2 10 17 -11 27 -28 13 -12 -10 -18 -5 -36 24 -17 30 -24 34 -35 25 -8 -7 -17 -9 -21 -5 -3 3 -1 6 5 6 7 0 12 5 12 11 0 5 -5 7 -11 3 -8 -4 -9 1 -4 17 5 18 4 20 -4 9 -15 -22 -28 14 -55 153 -8 38 -17 71 -20 74 -30 30 -10 -109 33 -234 40 -116 104 -222 189 -313 66 -71 206 -179 225 -172 4 1 7 -2 7 -6 0 -14 77 -45 91 -37 7 5 10 4 6 -2 -4 -6 0 -14 9 -17 10 -4 13 -2 8 7 -4 6 2 4 14 -7 12 -10 33 -19 47 -19 14 0 25 -3 25 -7 0 -8 80 -23 186 -35 102 -11 332 27 326 55 -3 11 0 11 12 1 12 -10 30 -5 100 27 105 50 163 89 245 166 158 151 251 330 280 541 16 116 15 175 -5 175 -12 0 -15 -6 -11 -21z m-1655 -434 c-12 -13 -28 13 -20 33 3 10 1 13 -6 8 -8 -5 -10 -2 -6 9 5 13 10 11 24 -12 11 -17 14 -32 8 -38z m1366 -247 c-4 -6 -10 -5 -15 3 -7 11 -9 11 -10 2 -3 -28 -4 -32 -13 -40 -6 -5 -6 -2 -1 6 6 11 4 13 -11 8 -18 -7 -18 -7 0 8 11 8 16 15 10 15 -5 0 -3 4 5 9 17 11 43 3 35 -11z"/>
 <path d="M783 963 c-7 -2 -13 -11 -13 -18 0 -11 -22 -15 -92 -17 -84 -3 -93 -5 -104 -25 -6 -13 -13 -20 -16 -17 -4 3 -21 8 -40 11 -18 3 -58 15 -88 27 -92 37 -90 40 -90 -150 l0 -164 245 0 245 0 0 105 0 105 -115 0 -115 0 0 40 0 40 100 0 100 0 0 35 c0 19 -1 35 -2 34 -2 0 -9 -3 -15 -6z"/>
 </g>

</svg>